<?xml version="1.0" encoding="iso-8859-1"?>
<!-- Uploaded to: SVG Repo, www.svgrepo.com, Generator: SVG Repo Mixer Tools -->
<svg fill="#000000" height="60px" width="60px" version="1.1" id="Layer_1" xmlns="http://www.w3.org/2000/svg" xmlns:xlink="http://www.w3.org/1999/xlink" 
	 viewBox="0 0 490.667 490.667" xml:space="preserve">
<g>
	<g>
		<path d="M151.467,202.645l38.72-58.091c3.264-4.907,1.941-11.52-2.965-14.784c-4.928-3.264-11.541-1.941-14.784,2.965l-42.667,64
			c-2.389,3.584-2.389,8.256,0,11.84l42.667,64c2.069,3.093,5.44,4.757,8.896,4.757c2.048,0,4.096-0.576,5.888-1.813
			c4.907-3.264,6.229-9.877,2.965-14.784L151.467,202.645z"/>
	</g>
</g>
<g>
	<g>
		<path d="M269.227,106.987c-5.76-1.515-11.52,2.027-12.928,7.765l-42.667,170.667c-1.429,5.717,2.048,11.499,7.765,12.928
			c0.875,0.213,1.749,0.32,2.603,0.32c4.8,0,9.131-3.221,10.325-8.085l42.667-170.667
			C278.421,114.197,274.944,108.416,269.227,106.987z"/>
	</g>
</g>
<g>
	<g>
		<path d="M360.875,196.757l-42.667-64c-3.264-4.907-9.877-6.229-14.784-2.965c-4.907,3.264-6.229,9.877-2.965,14.784l38.72,58.091
			l-38.72,58.091c-3.264,4.907-1.941,11.52,2.965,14.784c1.835,1.216,3.883,1.792,5.909,1.792c3.435,0,6.827-1.664,8.875-4.736
			l42.667-64C363.264,205.013,363.264,200.341,360.875,196.757z"/>
	</g>
</g>
<g>
	<g>
		<path d="M437.333,0h-384C23.936,0,0,23.936,0,53.333V352c0,29.397,23.936,53.333,53.333,53.333h160v21.333h-74.667
			c-29.397,0-53.333,23.936-53.333,53.333c0,5.888,4.779,10.667,10.667,10.667h298.667c5.888,0,10.667-4.779,10.667-10.667
			c0-29.397-23.936-53.333-53.333-53.333h-74.667v-21.333h160c29.397,0,53.333-23.936,53.333-53.333V53.333
			C490.667,23.936,466.731,0,437.333,0z M351.979,448c13.909,0,25.771,8.917,30.187,21.333H108.48
			C112.896,456.917,124.757,448,138.645,448H351.979z M234.667,426.667v-21.333H256v21.333H234.667z M469.333,352
			c0,17.643-14.357,32-32,32h-384c-17.643,0-32-14.357-32-32v-10.667h448V352z M469.333,320h-448V53.333c0-17.643,14.357-32,32-32
			h384c17.643,0,32,14.357,32,32V320z"/>
	</g>
</g>
<g>
	<g>
		<path d="M439.467,85.333c-14.848,0-22.805-1.6-26.581-5.397c-3.797-3.797-5.419-11.755-5.419-26.603
			c0-5.888-4.779-10.667-10.667-10.667c-5.888,0-10.667,4.779-10.667,10.667c0,14.848-1.6,22.805-5.397,26.581
			c-3.797,3.797-11.755,5.419-26.603,5.419c-5.888,0-10.667,4.779-10.667,10.667s4.779,10.667,10.667,10.667
			c14.848,0,22.805,1.6,26.581,5.397c3.797,3.797,5.419,11.755,5.419,26.603c0,5.888,4.779,10.667,10.667,10.667
			c5.888,0,10.667-4.779,10.667-10.667c0-14.848,1.6-22.827,5.397-26.603s11.755-5.397,26.603-5.397
			c5.888,0,10.667-4.779,10.667-10.667S445.355,85.333,439.467,85.333z"/>
	</g>
</g>
<g>
	<g>
		<path d="M140.8,130.133c-14.848,0-22.805-1.6-26.581-5.397c-3.797-3.797-5.419-11.755-5.419-26.603
			c0-5.888-4.779-10.667-10.667-10.667s-10.667,4.779-10.667,10.667c0,14.848-1.6,22.805-5.397,26.581
			c-3.797,3.797-11.755,5.419-26.603,5.419c-5.888,0-10.667,4.779-10.667,10.667s4.779,10.667,10.667,10.667
			c14.848,0,22.827,1.6,26.603,5.397c3.776,3.797,5.397,11.755,5.397,26.603c0,5.888,4.779,10.667,10.667,10.667
			s10.667-4.779,10.667-10.667c0-14.869,1.6-22.827,5.397-26.603c3.797-3.776,11.755-5.397,26.603-5.397
			c5.888,0,10.667-4.779,10.667-10.667S146.688,130.133,140.8,130.133z"/>
	</g>
</g>
</svg>