<?xml version="1.0" standalone="no"?>
<!DOCTYPE svg PUBLIC "-//W3C//DTD SVG 20010904//EN"
 "http://www.w3.org/TR/2001/REC-SVG-20010904/DTD/svg10.dtd">
<svg version="1.0" xmlns="http://www.w3.org/2000/svg"
 width="512.000000pt" height="512.000000pt" viewBox="0 0 512.000000 512.000000"
 preserveAspectRatio="xMidYMid meet">

<g transform="translate(0.000000,512.000000) scale(0.100000,-0.100000)"
fill="#000000" stroke="none">
<path d="M255 4719 c-79 -25 -143 -74 -188 -142 -65 -98 -67 -113 -67 -663 0
-482 0 -492 21 -518 27 -34 77 -36 107 -3 21 22 22 32 22 215 l0 192 1915 0
1915 0 0 -150 0 -150 -1267 0 c-886 0 -1280 -3 -1308 -11 -57 -16 -104 -55
-126 -105 -19 -41 -19 -69 -17 -502 l3 -458 24 -36 c13 -19 40 -46 59 -59 l36
-24 1298 -3 1298 -2 0 -135 0 -135 -1262 0 c-832 0 -1278 -4 -1308 -11 -60
-14 -108 -52 -131 -105 -19 -41 -19 -69 -17 -502 l3 -458 27 -41 c16 -24 44
-49 70 -62 l44 -21 1288 0 1288 0 -3 -79 c-4 -69 -8 -85 -34 -123 -20 -28 -49
-52 -84 -70 l-55 -28 -1318 0 -1319 0 -24 -25 c-32 -31 -32 -69 0 -100 l24
-25 1318 0 c1098 0 1327 3 1371 14 160 43 261 171 272 346 l5 85 430 5 c310 4
436 8 451 17 35 20 82 80 94 120 8 26 10 179 8 484 l-3 446 -28 40 c-15 22
-46 50 -70 64 l-42 24 -422 3 -423 3 0 134 0 134 434 3 434 3 39 31 c21 16 48
50 61 75 l23 44 -3 455 -3 455 -23 38 c-13 20 -45 50 -70 65 -43 25 -57 27
-170 31 -139 4 -163 0 -192 -31 -26 -28 -25 -58 1 -92 20 -26 22 -26 148 -26
111 0 130 -2 144 -18 15 -17 17 -62 17 -438 0 -313 -3 -423 -12 -432 -17 -17
-3519 -17 -3536 0 -9 9 -12 120 -12 440 0 412 1 428 19 438 13 7 497 10 1495
10 l1475 0 20 26 c34 43 26 86 -20 109 -20 11 -62 15 -148 15 l-120 0 -3 483
-3 482 -26 56 c-32 69 -88 132 -146 165 -95 56 -4 54 -1893 53 -1701 0 -1747
-1 -1805 -20z m3606 -156 c35 -18 64 -43 84 -71 l30 -44 3 -249 3 -249 -1916
0 -1917 0 4 243 3 244 30 48 c22 36 45 57 84 77 l53 28 1742 0 1742 0 55 -27z
m1087 -2699 l22 -15 0 -423 c0 -315 -3 -425 -12 -434 -17 -17 -3519 -17 -3536
0 -9 9 -12 120 -12 440 0 396 1 428 18 437 11 7 594 10 1757 11 1559 0 1743
-2 1763 -16z"/>
<path d="M460 4320 c-43 -43 -13 -120 48 -122 43 -1 75 30 75 73 0 61 -80 92
-123 49z"/>
<path d="M711 4314 c-24 -30 -26 -61 -7 -86 30 -40 92 -39 122 0 33 43 -4 112
-61 112 -24 0 -39 -7 -54 -26z"/>
<path d="M967 4322 c-24 -26 -22 -85 3 -107 46 -42 120 -10 120 52 0 20 -8 41
-20 53 -26 26 -81 26 -103 2z"/>
<path d="M1280 4320 c-43 -43 -14 -113 52 -125 18 -3 435 -4 925 -3 l892 3 22
22 c27 27 29 75 4 103 -18 20 -29 20 -947 20 -915 0 -928 0 -948 -20z"/>
<path d="M3331 4314 c-26 -34 -27 -64 -1 -92 28 -29 64 -34 238 -30 140 3 153
5 173 25 27 27 29 75 4 103 -17 19 -30 20 -206 20 l-188 0 -20 -26z"/>
<path d="M2359 1775 c-15 -8 -31 -27 -37 -42 -5 -16 -55 -153 -111 -305 -56
-152 -101 -283 -101 -291 0 -8 9 -26 21 -41 25 -32 79 -36 106 -7 10 11 67
155 127 320 100 277 108 303 96 330 -7 18 -24 34 -42 40 -17 6 -31 11 -32 11
-1 -1 -13 -7 -27 -15z"/>
<path d="M1843 1587 c-93 -93 -113 -118 -113 -143 0 -24 20 -49 114 -143 96
-96 120 -114 145 -114 43 0 71 28 71 71 0 29 -11 46 -74 111 l-75 76 75 76
c60 62 74 83 74 108 0 40 -31 71 -72 71 -27 0 -48 -16 -145 -113z"/>
<path d="M2563 1685 c-26 -19 -37 -59 -22 -88 6 -12 41 -52 77 -90 l66 -67
-71 -73 c-40 -39 -75 -84 -78 -98 -9 -38 31 -82 74 -82 28 0 48 15 141 108 60
60 111 119 115 132 9 36 -15 70 -123 176 -107 103 -132 115 -179 82z"/>
<path d="M460 3320 c-27 -27 -26 -81 1 -106 17 -15 39 -20 113 -22 99 -3 133
7 152 47 15 29 1 77 -26 91 -10 6 -64 10 -119 10 -88 0 -104 -3 -121 -20z"/>
<path d="M49 3159 c-15 -6 -32 -22 -38 -37 -8 -20 -11 -360 -9 -1242 l3 -1215
27 -57 c37 -80 71 -122 131 -161 92 -62 128 -67 434 -67 l274 0 24 25 c32 31
32 69 0 100 l-24 25 -273 0 c-301 0 -320 4 -381 66 -67 67 -61 -36 -67 1314
-3 674 -6 1226 -8 1227 -4 5 -61 33 -64 32 -2 0 -15 -5 -29 -10z"/>
<path d="M1742 3127 c-27 -29 -28 -67 -3 -98 17 -22 29 -24 111 -28 104 -4
143 8 160 48 13 33 0 75 -29 90 -11 6 -64 11 -119 11 -90 0 -100 -2 -120 -23z"/>
<path d="M2280 3130 c-27 -27 -26 -81 1 -106 20 -18 43 -19 524 -19 481 0 504
1 524 19 29 26 28 76 -2 104 -23 22 -24 22 -525 22 -489 0 -503 -1 -522 -20z"/>
<path d="M3550 3130 c-27 -27 -26 -81 1 -106 19 -17 38 -19 196 -19 172 0 175
0 194 24 25 30 24 62 -2 95 l-20 26 -175 0 c-161 0 -176 -2 -194 -20z"/>
<path d="M4122 3127 c-27 -29 -28 -67 -3 -98 l19 -24 267 0 267 0 19 24 c26
32 24 73 -4 99 -23 21 -30 22 -283 22 -259 0 -261 0 -282 -23z"/>
<path d="M462 2960 c-29 -27 -29 -80 -1 -106 30 -27 198 -34 235 -9 32 21 44
53 32 88 -15 40 -36 47 -145 47 -86 0 -102 -3 -121 -20z"/>
<path d="M1742 2767 c-27 -29 -28 -67 -3 -98 17 -22 29 -24 111 -28 104 -4
143 8 160 48 13 33 0 75 -29 90 -11 6 -64 11 -119 11 -90 0 -100 -2 -120 -23z"/>
<path d="M2265 2765 c-28 -27 -30 -42 -14 -79 17 -37 57 -48 159 -45 82 4 94
6 111 28 25 30 24 62 -2 95 -20 25 -24 26 -125 26 -98 0 -107 -2 -129 -25z"/>
<path d="M2717 2779 c-46 -27 -41 -105 9 -128 15 -6 85 -11 174 -11 89 0 159
5 174 11 51 23 55 103 7 128 -26 14 -340 14 -364 0z"/>
<path d="M3272 2770 c-29 -27 -29 -80 -1 -106 20 -18 44 -19 546 -19 l525 0
19 24 c25 30 24 62 -2 95 l-20 26 -523 0 c-512 0 -523 0 -544 -20z"/>
<path d="M4585 2765 c-28 -27 -30 -42 -14 -78 11 -25 47 -47 75 -47 25 0 64
47 64 78 0 36 -37 72 -74 72 -15 0 -37 -10 -51 -25z"/>
<path d="M462 2600 c-29 -27 -29 -80 -1 -106 30 -27 198 -34 235 -9 32 21 44
53 32 88 -15 40 -36 47 -145 47 -86 0 -102 -3 -121 -20z"/>
<path d="M462 2240 c-32 -30 -30 -82 4 -109 23 -18 41 -21 120 -21 82 0 96 3
118 23 36 32 39 74 6 107 -17 17 -33 20 -123 20 -90 0 -106 -3 -125 -20z"/>
<path d="M462 1880 c-32 -30 -30 -82 4 -109 23 -18 41 -21 120 -21 82 0 96 3
118 23 36 32 39 74 6 107 -17 17 -33 20 -123 20 -90 0 -106 -3 -125 -20z"/>
<path d="M462 1520 c-32 -30 -30 -82 4 -109 23 -18 41 -21 120 -21 82 0 96 3
118 23 36 32 39 74 6 107 -17 17 -33 20 -123 20 -90 0 -106 -3 -125 -20z"/>
<path d="M462 1157 c-31 -33 -29 -80 4 -106 23 -18 41 -21 120 -21 82 0 96 3
118 23 37 33 39 75 4 107 -19 17 -35 20 -123 20 -93 0 -103 -2 -123 -23z"/>
</g>
</svg>
