<?xml version="1.0" standalone="no"?>
<!DOCTYPE svg PUBLIC "-//W3C//DTD SVG 20010904//EN"
 "http://www.w3.org/TR/2001/REC-SVG-20010904/DTD/svg10.dtd">
<svg version="1.0" xmlns="http://www.w3.org/2000/svg"
 width="512.000000pt" height="512.000000pt" viewBox="0 0 512.000000 512.000000"
 preserveAspectRatio="xMidYMid meet">

<g transform="translate(0.000000,512.000000) scale(0.100000,-0.100000)"
fill="#000000" stroke="none">
<path d="M825 5101 c-46 -21 -101 -79 -112 -119 -10 -35 -10 -4809 0 -4844 11
-40 66 -98 112 -119 38 -18 117 -19 1733 -19 1508 0 1697 2 1730 16 44 18 87
57 110 99 16 28 17 179 20 1898 1 1028 -1 1883 -6 1900 -9 36 -987 1162 -1034
1191 -24 15 -138 16 -1270 16 -1181 0 -1245 -1 -1283 -19z m2405 -711 l0 -530
29 -32 29 -33 466 -3 466 -3 0 -1039 0 -1040 -1660 0 -1660 0 0 1605 0 1605
1165 0 1165 0 0 -530z m-2088 -3167 l3 -178 165 0 165 0 3 178 2 178 98 -3 97
-3 3 -457 2 -458 -100 0 -100 0 0 190 0 190 -170 0 -170 0 0 -190 0 -190 -100
0 -100 0 0 453 c0 250 3 457 7 460 3 4 48 7 99 7 l94 0 2 -177z m1328 87 l0
-90 -120 0 -120 0 0 -370 0 -370 -100 0 -100 0 0 370 0 370 -120 0 -120 0 0
90 0 90 340 0 340 0 0 -90z m463 -107 c31 -109 68 -251 82 -316 15 -65 29
-117 30 -115 2 2 26 89 54 193 28 105 68 244 89 310 l38 120 132 3 c112 2 132
0 132 -12 0 -32 40 -765 45 -834 l6 -72 -99 0 -99 0 -7 143 c-3 78 -9 241 -13
362 l-6 220 -24 -90 c-14 -49 -61 -210 -105 -357 l-81 -268 -78 0 -78 0 -10
38 c-79 296 -131 504 -146 580 -10 51 -19 91 -20 90 -2 -2 -8 -122 -14 -268
-6 -146 -14 -307 -17 -357 l-6 -93 -93 0 -92 0 4 48 c5 60 53 840 53 858 0 11
27 14 134 14 l133 0 56 -197z m965 -180 l2 -373 175 0 175 0 0 -85 0 -85 -280
0 -280 0 0 453 c0 250 3 457 7 461 4 4 50 5 103 4 l95 -3 3 -372z"/>
<path d="M2665 3540 c-3 -5 -79 -259 -170 -564 -90 -306 -166 -565 -170 -576
-6 -20 -4 -21 76 -18 l82 3 168 570 c93 314 169 576 169 583 0 15 -145 17
-155 2z"/>
<path d="M1815 3120 l-380 -176 -3 -70 -2 -69 382 -177 383 -178 3 81 c2 45 1
83 -2 86 -2 2 -126 58 -274 123 -149 65 -278 122 -286 127 -11 6 66 44 270
133 158 69 288 130 291 136 2 6 3 44 1 86 l-3 75 -380 -177z"/>
<path d="M2922 3213 l3 -86 293 -125 c161 -69 289 -129 285 -132 -5 -4 -137
-62 -295 -130 l-288 -122 0 -84 c0 -46 1 -84 3 -84 1 0 173 78 382 174 l380
175 3 73 3 74 -293 134 c-161 73 -335 153 -386 177 l-93 43 3 -87z"/>
</g>
</svg>
