<?xml version="1.0" standalone="no"?>
<!DOCTYPE svg PUBLIC "-//W3C//DTD SVG 1.1//EN" "http://www.w3.org/Graphics/SVG/1.1/DTD/svg11.dtd" >
<svg xmlns="http://www.w3.org/2000/svg" xmlns:xlink="http://www.w3.org/1999/xlink" version="1.1">
<metadata></metadata>
<defs>
<font id="nunito_sansitalic" horiz-adv-x="1228" >
<font-face units-per-em="2048" ascent="1638" descent="-410" />
<missing-glyph horiz-adv-x="528" />
<glyph unicode="&#xfb01;" horiz-adv-x="1144" d="M45 866l8 131h195l4 45q14 197 119.5 294.5t314.5 109.5l82 4v-129l-100 -6q-121 -10 -180.5 -69.5t-67.5 -186.5l-4 -62h612l-78 -997h-166l70 866h-448l-70 -866h-166l68 866h-193zM862 1241l15 191h206l-16 -191h-205z" />
<glyph unicode="&#xfb02;" horiz-adv-x="1146" d="M45 866l8 131h195l4 45q14 197 119.5 294.5t314.5 109.5l84 4l4 -129l-106 -6q-121 -8 -180.5 -68.5t-67.5 -187.5l-4 -62h282l-10 -131h-282l-70 -866h-166l68 866h-193zM787 0l114 1444h166l-114 -1444h-166z" />
<glyph horiz-adv-x="0" />
<glyph unicode="&#xd;" horiz-adv-x="528" />
<glyph horiz-adv-x="0" />
<glyph horiz-adv-x="0" />
<glyph unicode=" "  horiz-adv-x="528" />
<glyph unicode="&#x09;" horiz-adv-x="528" />
<glyph unicode="&#xa0;" horiz-adv-x="528" />
<glyph unicode="!" horiz-adv-x="468" d="M90 0l16 209h209l-16 -209h-209zM172 379l33 1065h207l-138 -1065h-102z" />
<glyph unicode="&#x22;" horiz-adv-x="862" d="M203 877v567h194l-84 -567h-110zM613 877v567h194l-84 -567h-110z" />
<glyph unicode="#" d="M61 373l9 121h206l130 473h-254l8 120h278l99 357h129l-97 -357h326l96 357h131l-98 -357h180l-8 -120h-205l-129 -473h252l-8 -121h-277l-102 -373h-129l102 373h-325l-103 -373h-131l103 373h-183zM408 494h325l129 473h-325z" />
<glyph unicode="$" d="M70 170l73 129q102 -92 211 -132t252 -40q164 0 254 68.5t90 191.5q0 68 -44 112t-109.5 71.5t-178.5 62.5q-145 47 -234 87t-152.5 117.5t-63.5 198.5q0 119 59.5 212t166 149.5t243.5 62.5l18 219h144l-19 -225q256 -29 394 -176l-74 -129q-84 86 -190.5 127t-243.5 41 q-150 0 -238 -73t-88 -195q0 -78 47 -128.5t115.5 -79t191.5 -67.5q137 -43 223.5 -81t145.5 -109.5t59 -184.5q0 -174 -124 -287.5t-332 -127.5l-17 -220h-143l16 222q-283 20 -452 184z" />
<glyph unicode="%" horiz-adv-x="1904" d="M154 971q0 231 96 361t264 130q164 0 252 -100t88 -293q0 -231 -96 -360t-266 -129q-164 0 -251 101t-87 290zM303 954q0 -133 46 -194.5t145 -61.5q102 0 155 99.5t53 289.5q0 131 -46 193.5t-142 62.5q-104 0 -157.5 -99t-53.5 -290zM430 23l967 1472l112 -74 l-966 -1472zM1087 377q0 231 96.5 361t266.5 130q164 0 251 -100t87 -293q0 -231 -95.5 -360t-265.5 -129q-163 0 -251.5 101t-88.5 290zM1239 360q0 -131 46 -193.5t142 -62.5q105 0 158 99.5t53 290.5q0 131 -46 193.5t-142 62.5q-104 0 -157.5 -99.5t-53.5 -290.5z" />
<glyph unicode="&#x26;" horiz-adv-x="1359" d="M104 360q0 135 83 240t262 209q-92 104 -128 178t-36 154q0 143 97 230t255 87q150 0 238 -77.5t88 -211.5q0 -109 -66 -193.5t-233 -191.5l340 -376q92 182 104 440h145q-14 -328 -153 -549l268 -299h-199l-159 178q-88 -94 -201 -143t-242 -49q-137 0 -241.5 47 t-163 132t-58.5 195zM268 367q0 -113 83 -179.5t224 -66.5q101 0 189 41t156 119l-383 428q-145 -86 -207 -163t-62 -179zM442 1141q0 -59 28 -112.5t105 -145.5q137 84 189.5 144t52.5 134q0 78 -48 124t-128 46q-90 0 -144.5 -52t-54.5 -138z" />
<glyph unicode="'" horiz-adv-x="452" d="M203 877v567h194l-84 -567h-110z" />
<glyph unicode="(" horiz-adv-x="643" d="M209 381q0 588 323 1092l113 -54q-133 -260 -199.5 -518t-66.5 -536q0 -352 127 -713l-119 -47q-94 202 -136 391.5t-42 384.5z" />
<glyph unicode=")" horiz-adv-x="643" d="M6 -342q133 262 199.5 520t66.5 535q0 352 -127 712l119 48q94 -203 136 -392.5t42 -384.5q0 -590 -325 -1091z" />
<glyph unicode="*" horiz-adv-x="921" d="M117 1030v127l301 -10l-160 254l109 63l141 -266l141 266l109 -63l-160 -254l303 10v-127l-303 10l160 -254l-109 -63l-141 266l-141 -266l-109 63l160 254z" />
<glyph unicode="+" d="M117 518l10 129h436l35 436h127l-35 -436h436l-12 -129h-434l-35 -434h-127l35 434h-436z" />
<glyph unicode="," horiz-adv-x="468" d="M86 -174q86 90 102 174h-98l16 209h209l-10 -150q-8 -88 -42 -156.5t-105 -135.5z" />
<glyph unicode="-" horiz-adv-x="870" d="M147 477l11 137h573l-10 -137h-574z" />
<glyph unicode="." horiz-adv-x="468" d="M90 0l16 209h209l-16 -209h-209z" />
<glyph unicode="/" horiz-adv-x="579" d="M-84 -82l647 1624l133 -51l-649 -1624z" />
<glyph unicode="0" d="M123 614q0 266 63.5 457t184.5 290t291 99q236 0 358.5 -160.5t122.5 -470.5q0 -401 -142.5 -623t-398.5 -222q-235 0 -357 160.5t-122 469.5zM293 588q0 -236 78 -349.5t237 -113.5q178 0 271.5 185.5t93.5 545.5q0 236 -77 349.5t-237 113.5q-180 0 -273 -185.5 t-93 -545.5z" />
<glyph unicode="1" d="M227 0l13 141h315l88 1092l-264 -158l-74 127l400 242h120l-102 -1303h319l-12 -141h-803z" />
<glyph unicode="2" d="M135 0l8 127l553 555q123 123 175.5 216t52.5 194q0 104 -68 165.5t-182 61.5q-113 0 -215.5 -40t-208.5 -126l-51 129q92 84 219 131t266 47q186 0 297 -98t111 -268q0 -127 -64.5 -245t-218.5 -271l-442 -437h708l-10 -141h-930z" />
<glyph unicode="3" d="M88 164l74 129q100 -84 201.5 -125t214.5 -41q154 0 239.5 74.5t85.5 212.5q0 248 -315 248h-164l12 141h148q158 0 249 79t91 216q0 102 -69 161.5t-187 59.5q-215 0 -418 -166l-51 129q90 84 219 131t266 47q184 0 296 -95t112 -255q0 -129 -71 -228.5t-196 -144.5 q115 -32 179.5 -114t64.5 -205q0 -129 -60.5 -227.5t-172 -151.5t-263.5 -53q-141 0 -265 46t-220 132z" />
<glyph unicode="4" d="M90 313l8 127l774 1004h140l-78 -991h219l-12 -140h-219l-25 -313h-166l25 313h-666zM281 453h487l55 704z" />
<glyph unicode="5" d="M137 164l74 129q193 -166 407 -166q156 0 248 94t92 254q0 131 -80.5 211t-213.5 80q-215 0 -336 -168h-117l65 846h867l-13 -139h-696l-41 -506q59 51 137 78.5t164 27.5q127 0 225.5 -52t151.5 -147.5t53 -218.5q0 -150 -63.5 -263t-179 -175.5t-265.5 -62.5 q-137 0 -260 46t-219 132z" />
<glyph unicode="6" horiz-adv-x="1226" d="M127 604q0 260 73.5 453.5t209 298t317.5 104.5q127 0 246 -46t213 -132l-72 -129q-92 82 -190.5 124t-192.5 42q-184 0 -296.5 -153.5t-135.5 -444.5l-4 -49q53 109 155.5 171t229.5 62q131 0 231.5 -54t155.5 -153.5t55 -228.5q0 -139 -61.5 -249.5t-170 -173 t-243.5 -62.5q-250 0 -385 161.5t-135 458.5zM328 430q0 -137 87 -221t228 -84q139 0 226 93t87 245q0 137 -84 220t-223 83q-141 0 -231 -94t-90 -242z" />
<glyph unicode="7" d="M201 1303l12 141h952l-10 -125l-768 -1319h-178l760 1303h-768z" />
<glyph unicode="8" d="M86 375q0 131 80 231.5t217 138.5q-100 41 -154.5 121t-54.5 193q0 121 61.5 212t174 140t262.5 49q225 0 349 -95t124 -263q0 -129 -70.5 -226.5t-191.5 -140.5q118 -39 179.5 -126t61.5 -218q0 -121 -64.5 -213t-183 -142t-280.5 -50q-246 0 -378 100t-132 289z M252 379q0 -252 342 -252q174 0 269 70.5t95 201.5q0 135 -80.5 199t-263.5 64q-176 0 -269 -71t-93 -212zM340 1049q0 -115 80 -180.5t231 -65.5q158 0 242 73.5t84 206.5q0 115 -77 176.5t-228 61.5q-162 0 -247 -70.5t-85 -201.5z" />
<glyph unicode="9" d="M80 162l74 129q188 -166 381 -166q186 0 298.5 154.5t133.5 445.5l4 49q-53 -111 -153.5 -173t-229.5 -62q-131 0 -231.5 55t-156 154.5t-55.5 228.5q0 137 61.5 247.5t169 173t242.5 62.5q250 0 386.5 -161.5t136.5 -458.5q0 -260 -74 -453.5t-210 -298t-318 -104.5 q-127 0 -246 46t-213 132zM311 981q0 -137 83 -220t222 -83q142 0 233 94t91 242q0 137 -87 221t-226 84q-141 0 -228.5 -93t-87.5 -245z" />
<glyph unicode=":" horiz-adv-x="468" d="M90 0l16 209h209l-16 -209h-209zM154 786l14 211h209l-15 -211h-208z" />
<glyph unicode=";" horiz-adv-x="468" d="M86 -174q86 90 102 174h-98l16 209h209l-10 -150q-8 -88 -42 -156.5t-105 -135.5zM154 786l16 211h209l-17 -211h-208z" />
<glyph unicode="&#x3c;" d="M117 518l10 131l1034 449l-10 -140l-872 -376l813 -375l-11 -141z" />
<glyph unicode="=" d="M100 313l11 129h997l-8 -129h-1000zM131 723l12 129h998l-11 -129h-999z" />
<glyph unicode="&#x3e;" d="M82 66l10 141l873 375l-813 376l10 140l964 -449l-10 -131z" />
<glyph unicode="?" horiz-adv-x="907" d="M63 1282q92 84 217.5 131t254.5 47q174 0 275 -81t101 -216q0 -117 -54 -201.5t-163 -193.5q-98 -102 -151.5 -178t-71.5 -176l-8 -37h-98l4 51q8 127 61 217t150 197q82 92 120.5 155.5t38.5 147.5q0 82 -58 128t-161 46q-203 0 -403 -166zM283 0l14 209h209l-14 -209 h-209z" />
<glyph unicode="@" horiz-adv-x="1896" d="M111 559q0 270 113.5 473t311 313.5t443.5 110.5q262 0 449.5 -107.5t282.5 -279.5t95 -364q0 -201 -60 -329t-153.5 -186.5t-197.5 -58.5q-109 0 -171.5 48t-70.5 134h-4q-51 -84 -128 -133t-179 -49q-135 0 -219 95.5t-84 262.5q0 139 54 262t152.5 197t225.5 74 q96 0 167.5 -46t94.5 -120h2l25 141h133l-97 -555q-8 -57 -8 -73q0 -70 33 -98.5t98 -28.5q57 0 116.5 46t100.5 149.5t41 267.5q0 162 -77.5 305t-235.5 232t-385 89q-209 0 -376 -93t-263 -268t-96 -411q0 -225 88 -394t254 -260t393 -91q174 0 300 49t194 137h178 q-86 -143 -261.5 -227t-410.5 -84q-264 0 -460.5 108.5t-302 306t-105.5 455.5zM670 496q0 -121 57 -187.5t141 -66.5q103 0 177.5 62.5t113.5 160.5t39 207q0 115 -56.5 175t-152.5 60q-98 0 -171 -59.5t-110.5 -154.5t-37.5 -197z" />
<glyph unicode="A" horiz-adv-x="1488" d="M-2 0l747 1444h146l522 -1444h-168l-131 371h-754l-186 -371h-176zM432 510h633l-260 739z" />
<glyph unicode="B" horiz-adv-x="1380" d="M139 0l113 1444h559q227 0 345 -92t118 -262q0 -127 -66.5 -217.5t-195.5 -135.5q116 -30 178.5 -114t62.5 -207q0 -197 -131 -306.5t-364 -109.5h-619zM317 139h435q338 1 338 275q0 250 -314 250h-418zM369 803h403q162 0 248 69.5t86 202.5q0 229 -309 230h-389z" />
<glyph unicode="C" horiz-adv-x="1386" d="M141 662q0 242 85 422t242 278t370 98q158 0 287.5 -46t222.5 -136l-74 -127q-96 88 -197.5 126t-236.5 38q-248 0 -386.5 -174t-138.5 -482q0 -254 121 -392t346 -138q229 0 424 166l56 -129q-96 -90 -223.5 -136t-278.5 -46q-189 0 -328 81.5t-215 234.5t-76 362z" />
<glyph unicode="D" horiz-adv-x="1513" d="M139 0l113 1444h477q326 0 502 -174t176 -490q0 -244 -86 -419t-252 -268t-399 -93h-531zM319 143h343q283 0 427 164t144 475q0 518 -518 518h-305z" />
<glyph unicode="E" horiz-adv-x="1191" d="M139 0l113 1444h913l-10 -139h-747l-39 -502h706l-12 -139h-705l-41 -525h748l-12 -139h-914z" />
<glyph unicode="F" horiz-adv-x="1140" d="M139 0l113 1444h893l-10 -141h-725l-39 -498h684l-13 -141h-684l-53 -664h-166z" />
<glyph unicode="G" horiz-adv-x="1482" d="M139 647q0 248 88 431.5t251 282.5t384 99q305 0 500 -182l-74 -129q-102 90 -201.5 129t-224.5 39q-260 -2 -404.5 -177t-144.5 -487q0 -254 125 -391t371 -137q172 0 334 55l35 441h-359l10 131h512l-53 -666q-90 -45 -225 -73.5t-264 -28.5q-317 0 -488.5 175 t-171.5 488z" />
<glyph unicode="H" horiz-adv-x="1552" d="M139 0l113 1444h166l-49 -639h864l49 639h166l-113 -1444h-166l52 662h-865l-51 -662h-166z" />
<glyph unicode="I" horiz-adv-x="524" d="M139 0l113 1444h168l-113 -1444h-168z" />
<glyph unicode="J" horiz-adv-x="667" d="M-47 127l121 8q219 16 237 256l84 1053h168l-82 -1055q-31 -371 -395 -395l-127 -8z" />
<glyph unicode="K" horiz-adv-x="1286" d="M139 0l113 1444h168l-51 -660l749 660h223l-811 -705l738 -739h-207l-701 688l-53 -688h-168z" />
<glyph unicode="L" horiz-adv-x="1105" d="M139 0l113 1444h168l-101 -1301h723l-12 -143h-891z" />
<glyph unicode="M" horiz-adv-x="1722" d="M139 0l113 1444h141l461 -1043l625 1043h137l-113 -1444h-153l88 1114l-537 -885h-119l-399 881l-88 -1110h-156z" />
<glyph unicode="N" horiz-adv-x="1513" d="M139 0l113 1444h131l776 -1157l92 1157h158l-113 -1444h-129l-778 1161l-92 -1161h-158z" />
<glyph unicode="O" horiz-adv-x="1564" d="M141 662q0 242 83 423t235.5 279t355.5 98q199 0 343.5 -82t222 -235.5t77.5 -364.5q0 -240 -83 -421t-235.5 -279t-355.5 -98q-198 0 -342.5 81.5t-222.5 235.5t-78 363zM313 659q0 -256 123 -394t348 -138q156 0 268.5 79t173 226.5t60.5 349.5q0 258 -123 396.5 t-348 138.5q-156 0 -268.5 -79t-173 -226.5t-60.5 -352.5z" />
<glyph unicode="P" horiz-adv-x="1320" d="M139 0l113 1444h559q221 0 341 -106.5t120 -290.5q0 -223 -135.5 -339t-376.5 -116h-406l-47 -592h-168zM365 731h387q354 0 354 307q0 266 -309 267h-387z" />
<glyph unicode="Q" horiz-adv-x="1564" d="M141 662q0 242 83 423t235.5 279t355.5 98q199 0 344.5 -82t222 -235.5t76.5 -364.5q0 -283 -115.5 -483.5t-328.5 -273.5q37 -17 65.5 -49.5t59.5 -88.5l118 -221l-147 -74l-149 277q-61 113 -218 117q-182 6 -317 88t-210 233.5t-75 356.5zM313 659q0 -256 123 -394 t348 -138q156 0 268.5 79t173 226.5t60.5 349.5q0 258 -123 396.5t-348 138.5q-156 0 -268.5 -79t-173 -226.5t-60.5 -352.5z" />
<glyph unicode="R" horiz-adv-x="1404" d="M139 0l113 1444h590q221 0 339.5 -99.5t118.5 -285.5q0 -184 -99 -295t-294 -135q49 -17 84 -54.5t66 -103.5l219 -471h-184l-211 463q-37 84 -95.5 115.5t-162.5 31.5h-271l-47 -610h-166zM365 750h421q176 0 263.5 73.5t87.5 225.5q0 131 -77 193.5t-231 62.5h-421z " />
<glyph unicode="S" horiz-adv-x="1263" d="M72 166l73 129q111 -90 224.5 -130t257.5 -40q176 0 270 65.5t94 184.5q0 74 -46 121t-115.5 74.5t-190.5 62.5q-152 43 -246 84t-160.5 122t-66.5 212q0 123 65.5 216t187.5 143t283 50q152 0 284 -47t224 -135l-75 -129q-193 170 -435 170q-176 0 -270 -68.5 t-94 -191.5q0 -82 49 -133.5t122 -81t202 -68.5q147 -43 237 -82t152.5 -112.5t62.5 -194.5q0 -186 -144.5 -294.5t-393.5 -108.5q-170 0 -305.5 45t-245.5 137z" />
<glyph unicode="T" horiz-adv-x="1224" d="M88 1300l12 144h1174l-10 -144h-504l-103 -1300h-170l105 1300h-504z" />
<glyph unicode="U" horiz-adv-x="1482" d="M170 494q0 49 2 75l70 875h166l-68 -873q-2 -23 -2 -65q0 -190 94 -284.5t287 -94.5q201 0 309.5 102.5t122.5 317.5l70 897h168l-70 -881q-23 -291 -175.5 -435t-428.5 -144q-271 0 -408 131t-137 379z" />
<glyph unicode="V" horiz-adv-x="1415" d="M78 1444h176l432 -1233l625 1233h174l-744 -1444h-145z" />
<glyph unicode="W" horiz-adv-x="2254" d="M141 1444h170l316 -1206l514 1206l127 -2l317 -1206l510 1208h164l-617 -1444h-143l-317 1180l-506 -1180h-141z" />
<glyph unicode="X" horiz-adv-x="1323" d="M-23 0l609 741l-469 703h196l377 -576l463 576h203l-580 -709l492 -735h-197l-397 610l-496 -610h-201z" />
<glyph unicode="Y" horiz-adv-x="1230" d="M37 1444h190l410 -621l508 621h194l-626 -760l-54 -684h-167l53 682z" />
<glyph unicode="Z" horiz-adv-x="1208" d="M53 0l8 125l912 1178h-817l12 141h1018l-10 -123l-912 -1180h842l-12 -141h-1041z" />
<glyph unicode="[" horiz-adv-x="643" d="M156 -369l143 1813h401l-8 -131h-239l-123 -1551h239l-10 -131h-403z" />
<glyph unicode="\" horiz-adv-x="577" d="M37 1505l141 37l395 -1638l-141 -37z" />
<glyph unicode="]" horiz-adv-x="643" d="M-53 -369l10 131h240l122 1551h-239l8 131h404l-142 -1813h-403z" />
<glyph unicode="^" d="M82 289l530 999h129l373 -999h-137l-311 839l-443 -839h-141z" />
<glyph unicode="_" horiz-adv-x="1024" d="M-31 -109l8 109h992l-8 -109h-992z" />
<glyph unicode="`" horiz-adv-x="614" d="M59 1542h178l176 -414h-114z" />
<glyph unicode="a" horiz-adv-x="1085" d="M104 272q0 113 59.5 179.5t190.5 97.5t355 31h73l4 59l2 39q0 106 -51 156.5t-162 50.5q-168 0 -337 -107l-45 123q76 53 186 87t215 34q354 0 354 -340q0 -37 -2 -57l-49 -625h-162l13 160q-45 -86 -124 -130t-180 -44q-150 0 -245 80.5t-95 205.5zM272 287 q0 -78 55.5 -124t151.5 -46q117 0 199 82t90 211l4 63h-57q-180 0 -275.5 -19.5t-131.5 -58.5t-36 -108z" />
<glyph unicode="b" horiz-adv-x="1191" d="M115 0l114 1444h166l-47 -594q51 80 138 126t190 46q125 0 221 -59.5t149.5 -169t53.5 -254.5q0 -164 -58.5 -290t-165 -194.5t-245.5 -68.5q-117 0 -205 51t-131 143l-14 -180h-166zM317 467q0 -168 77 -256t222 -88q146 0 230 110.5t84 305.5q0 164 -78 255t-219 91 q-147 0 -231.5 -111.5t-84.5 -306.5z" />
<glyph unicode="c" horiz-adv-x="980" d="M94 467q0 168 61.5 293t176 193.5t270.5 68.5q109 0 202 -35t161 -96l-64 -123q-76 59 -147.5 87t-151.5 28q-160 0 -248 -110.5t-88 -307.5q0 -162 80 -252t225 -90q78 0 145.5 27.5t141.5 87.5l47 -123q-66 -61 -157 -95t-191 -34q-139 0 -244.5 59t-162 169t-56.5 253 z" />
<glyph unicode="d" horiz-adv-x="1191" d="M94 465q0 166 58.5 292t165 195.5t245.5 69.5q117 0 204 -51t130 -142l49 615h166l-115 -1444h-163l12 156q-51 -80 -138 -125t-190 -45q-125 0 -221 58t-149.5 166.5t-53.5 254.5zM262 471q0 -166 79 -257t220 -91q148 0 232 111.5t84 304.5q0 168 -77 257t-222 89 t-230.5 -110.5t-85.5 -303.5z" />
<glyph unicode="e" horiz-adv-x="1079" d="M94 469q0 162 61.5 288t172 195.5t258.5 69.5q190 0 300.5 -113.5t110.5 -335.5q0 -47 -6 -100h-731v-8q0 -164 81 -254t234 -90q182 0 326 117l47 -123q-61 -59 -166.5 -94t-214.5 -35q-217 0 -345 131t-128 352zM268 580h582v24q0 138 -64 210q-70 78 -194 79 q-137 0 -219 -81t-105 -232z" />
<glyph unicode="f" horiz-adv-x="671" d="M45 866l8 131h195l4 45q14 197 119.5 294.5t314.5 109.5l84 4l4 -129l-106 -6q-121 -8 -180.5 -68.5t-67.5 -187.5l-4 -62h282l-10 -131h-282l-70 -866h-166l68 866h-193z" />
<glyph unicode="g" horiz-adv-x="1200" d="M94 -248l64 123q102 -68 188 -95.5t193 -27.5q287 0 309 307l12 146q-49 -82 -137 -128t-195 -46q-197 0 -314.5 125t-117.5 333q0 156 58.5 277t165 188.5t247.5 67.5q119 0 207 -51t133 -144l13 170h165l-73 -925q-37 -455 -475 -455q-254 0 -443 135zM264 489 q0 -156 78 -238.5t223 -82.5q150 0 235 104.5t85 286.5q0 156 -79 241t-222 85q-150 0 -235 -105.5t-85 -290.5z" />
<glyph unicode="h" horiz-adv-x="1163" d="M115 0l114 1444h166l-49 -596q53 84 140 129t196 45q168 0 256 -88t88 -256q0 -37 -2 -55l-49 -623h-166l49 612q2 14 2 43q0 227 -219 228q-139 0 -221 -83t-94 -229l-45 -571h-166z" />
<glyph unicode="i" horiz-adv-x="475" d="M115 0l80 997h165l-79 -997h-166zM195 1243l16 187h201l-14 -187h-203z" />
<glyph unicode="j" horiz-adv-x="475" d="M-213 -248l96 6q111 8 167 62.5t65 167.5l80 1009h165l-77 -985q-16 -190 -108.5 -280t-289.5 -103l-92 -6zM195 1243l16 187h201l-14 -187h-203z" />
<glyph unicode="k" horiz-adv-x="1024" d="M115 0l114 1444h166l-71 -903l495 454h215l-530 -479l500 -516h-209l-476 485l-38 -485h-166z" />
<glyph unicode="l" horiz-adv-x="475" d="M115 0l114 1444h166l-114 -1444h-166z" />
<glyph unicode="m" horiz-adv-x="1744" d="M115 0l80 995h161l-12 -145q102 172 313 172q115 0 190 -48t105 -140q51 90 139.5 139t200.5 49q156 0 236 -87t80 -253q0 -39 -2 -59l-50 -623h-165l49 614q2 16 2 50q0 113 -48 166t-147 53q-125 0 -198.5 -82t-83.5 -234l-45 -567h-166l49 614q2 16 2 50 q0 113 -48 166t-147 53q-125 0 -198.5 -82t-85.5 -234l-45 -567h-166z" />
<glyph unicode="n" horiz-adv-x="1163" d="M115 0l80 997h161l-12 -153q51 84 139 131t199 47q168 0 256 -88t88 -256q0 -37 -2 -55l-49 -623h-166l49 612q2 14 2 43q0 227 -219 228q-139 0 -221 -83t-94 -229l-45 -571h-166z" />
<glyph unicode="o" horiz-adv-x="1136" d="M94 469q0 166 60.5 291t170 193.5t255.5 68.5q141 0 245.5 -59.5t161.5 -170t57 -255.5q0 -166 -60 -291t-171 -192.5t-256 -67.5q-139 0 -244.5 59t-162 169t-56.5 255zM262 463q0 -166 76 -253t221 -87q150 0 232.5 112.5t82.5 307.5q0 164 -76.5 253t-217.5 89 q-150 0 -234 -115t-84 -307z" />
<glyph unicode="p" horiz-adv-x="1191" d="M86 -369l107 1366h165l-12 -151q49 82 137 129t193 47q125 0 221 -59.5t149.5 -169t53.5 -254.5q0 -164 -58.5 -290t-165 -194.5t-245.5 -68.5q-117 0 -204 50t-132 140l-43 -545h-166zM317 467q0 -168 77 -256t222 -88q146 0 230 110.5t84 305.5q0 164 -78 255t-219 91 q-147 0 -231.5 -111.5t-84.5 -306.5z" />
<glyph unicode="q" horiz-adv-x="1191" d="M92 467q0 164 59.5 290t166 195.5t243.5 69.5q117 0 205 -52t131 -145l14 172h166l-108 -1366h-166l41 525q-51 -80 -138.5 -125t-189.5 -45q-125 0 -221 59t-149.5 168t-53.5 254zM262 467q0 -164 78 -254t219 -90q148 0 231.5 111.5t83.5 304.5q0 168 -76.5 257 t-219.5 89q-147 0 -231.5 -111.5t-84.5 -306.5z" />
<glyph unicode="r" horiz-adv-x="722" d="M115 0l80 995h159l-12 -159q53 84 138 128t212 54l56 4v-143l-113 -11q-150 -14 -223.5 -87.5t-83.5 -211.5l-47 -569h-166z" />
<glyph unicode="s" horiz-adv-x="983" d="M61 115l66 123q82 -61 164 -90t178 -29q240 0 240 147q0 68 -57.5 100.5t-180.5 69.5q-106 31 -170.5 59.5t-111 83t-46.5 144.5q0 135 108.5 217t287.5 82q106 0 201.5 -35t158.5 -96l-65 -121q-135 117 -295 117q-113 0 -173.5 -40t-60.5 -116q0 -68 58.5 -100.5 t177.5 -67.5q104 -31 169.5 -59.5t111.5 -83.5t46 -146q0 -133 -110.5 -210.5t-292.5 -77.5q-115 0 -219.5 33.5t-184.5 95.5z" />
<glyph unicode="t" horiz-adv-x="696" d="M45 866l8 131h195l24 303h166l-24 -303h284l-10 -131h-285l-38 -506q-2 -14 -3 -38q0 -203 201 -203q49 0 90 8l-18 -131q-43 -10 -96 -10q-166 0 -254 84t-88 237q0 29 2 45l41 514h-195z" />
<glyph unicode="u" horiz-adv-x="1148" d="M137 328q0 37 2 55l49 614h166l-49 -604q-2 -14 -2 -43q0 -225 215 -225q133 0 213 82t90 227l45 563h166l-78 -997h-161l12 162q-51 -84 -137 -130t-193 -46q-166 0 -252 87t-86 255z" />
<glyph unicode="v" horiz-adv-x="1052" d="M59 995h170l273 -813l401 813h170l-508 -995h-155z" />
<glyph unicode="w" horiz-adv-x="1724" d="M90 997h168l221 -800l350 800h144l223 -802l346 802h172l-450 -997h-160l-223 772l-340 -772h-158z" />
<glyph unicode="x" horiz-adv-x="1060" d="M-20 0l454 516l-352 481h201l256 -362l317 362h203l-428 -485l373 -512h-201l-279 393l-340 -393h-204z" />
<glyph unicode="y" horiz-adv-x="1052" d="M59 995h170l273 -813l401 813h170l-696 -1364h-170l196 383z" />
<glyph unicode="z" horiz-adv-x="1030" d="M59 0l11 115l671 751h-591l10 131h801l-9 -120l-669 -746h632l-10 -131h-846z" />
<glyph unicode="{" horiz-adv-x="718" d="M98 475l8 127l58 4q82 4 116.5 42t41.5 122l34 465q8 104 63.5 156.5t153.5 52.5h203l-8 -131h-152q-45 0 -68.5 -22.5t-27.5 -69.5l-37 -467q-8 -90 -55 -145.5t-111 -69.5q59 -14 99.5 -69.5t34.5 -145.5l-39 -469q-6 -92 82 -93h151l-10 -131h-176q-113 0 -166 55.5 t-45 153.5l37 465q6 84 -23 123t-108 43z" />
<glyph unicode="|" horiz-adv-x="534" d="M119 -369l143 1813h158l-144 -1813h-157z" />
<glyph unicode="}" horiz-adv-x="718" d="M-53 -369l10 131h152q90 0 96 93l37 469q8 90 56 145t112 70q-61 14 -101.5 69.5t-32.5 145.5l35 467q8 92 -80 92h-151l8 131h178q113 0 166 -55.5t45 -153.5l-37 -465q-6 -84 23 -122t108 -42l56 -4l-11 -127l-55 -4q-80 -4 -114.5 -43t-43.5 -123l-36 -465 q-18 -209 -222 -209h-198z" />
<glyph unicode="~" d="M117 524q45 96 116.5 148.5t163.5 52.5q66 0 124.5 -23.5t140.5 -68.5q66 -37 105.5 -53.5t78.5 -16.5q117 0 180 133l100 -55q-47 -96 -118.5 -148.5t-161.5 -52.5q-66 0 -124 23.5t-140 68.5q-72 39 -109 55.5t-76 16.5q-63 0 -106 -36t-76 -99z" />
<glyph unicode="&#xa1;" horiz-adv-x="468" d="M61 -369l132 985h100l-25 -985h-207zM154 786l14 211h209l-15 -211h-208z" />
<glyph unicode="&#xa2;" d="M186 467q0 231 115 377.5t315 173.5l19 223h143l-18 -223q88 -8 164.5 -42t132.5 -85l-64 -123q-76 59 -146.5 87t-150.5 28q-162 0 -250 -110.5t-88 -307.5q0 -160 80 -251t226 -91q78 0 145.5 27.5t140.5 87.5l47 -123q-59 -55 -142 -89t-177 -40l-16 -222h-144l19 232 q-164 35 -257.5 160t-93.5 311z" />
<glyph unicode="&#xa3;" d="M59 0l11 141h200l43 523h-202l10 118h201l22 275q14 186 129 294.5t301 108.5q127 0 243 -47t202 -135l-76 -129q-80 82 -175.5 126t-189.5 44q-119 0 -188.5 -67.5t-79.5 -196.5l-21 -273h369l-8 -118h-371l-41 -523h682l-12 -141h-1049z" />
<glyph unicode="&#xa4;" d="M115 76l110 114q-102 139 -102 312q0 172 102 311l-110 115l88 88l108 -115q63 51 142 80t163 29t161 -28t138 -77l109 111l90 -90l-108 -111q104 -137 104 -313q0 -179 -106 -314l108 -112l-86 -86l-108 110q-129 -106 -302 -106q-84 0 -162.5 28.5t-142.5 79.5 l-110 -112zM266 502q0 -100 47 -185.5t127 -135.5t174 -50q95 0 174.5 50t127 135t47.5 186q0 100 -47.5 185t-127 135t-174.5 50q-94 0 -174 -50t-127 -135t-47 -185z" />
<glyph unicode="&#xa5;" d="M63 1444h189l385 -617l487 617h189l-520 -656h311l-10 -120h-381l-15 -189h381l-10 -121h-381l-29 -358h-167l28 358h-383l10 121h383l15 189h-383l10 120h309z" />
<glyph unicode="&#xa6;" horiz-adv-x="534" d="M121 -369l53 684h158l-53 -684h-158zM209 760l53 684h158l-53 -684h-158z" />
<glyph unicode="&#xa7;" horiz-adv-x="1099" d="M70 -252l67 123q86 -63 165 -90t175 -27q121 0 186.5 59.5t65.5 166.5q0 72 -39 125t-127 104l-190 106q-145 86 -210 168t-65 187q0 86 37 162.5t101 128.5q-23 57 -23 122q0 170 114.5 271.5t299.5 103.5q100 0 197.5 -34.5t164.5 -94.5l-65 -121q-72 59 -144.5 87 t-156.5 28q-113 0 -179.5 -62.5t-66.5 -164.5q0 -70 39 -121t127 -105l188 -108q147 -88 212 -171t65 -188q0 -79 -37 -154t-103 -128q25 -57 25 -127q0 -174 -111.5 -274.5t-300.5 -100.5q-240 0 -411 129zM256 694q0 -63 46 -119.5t151 -119.5l182 -109q107 -64 158 -119 q55 68 55 156q0 66 -44 120t-151 120l-182 108q-98 59 -160 121q-55 -72 -55 -158z" />
<glyph unicode="&#xa8;" horiz-adv-x="614" d="M100 1249l14 174h183l-15 -174h-182zM450 1249l14 174h183l-15 -174h-182z" />
<glyph unicode="&#xa9;" horiz-adv-x="1669" d="M102 723q0 205 96.5 372t264.5 263t373 96t371.5 -96t263 -263t96.5 -372t-96.5 -372t-264.5 -264t-370 -97q-205 0 -372 97t-264.5 264t-97.5 372zM199 723q0 -180 84 -326.5t229 -230.5t324 -84q178 0 323.5 84t228 230.5t82.5 326.5t-82.5 325.5t-228 229.5t-323.5 84 t-323.5 -84t-229.5 -229.5t-84 -325.5zM436 723q0 203 111.5 321.5t304.5 118.5q86 0 168 -29.5t139 -80.5l-49 -109q-119 94 -246 94q-129 0 -198.5 -82t-69.5 -233q0 -152 69.5 -234.5t198.5 -82.5q127 0 246 94l49 -109q-57 -51 -139 -80.5t-168 -29.5 q-193 0 -304.5 119.5t-111.5 322.5z" />
<glyph unicode="&#xaa;" horiz-adv-x="675" d="M102 1012q0 96 82 138t275 42h45l2 35q10 117 -111 116q-98 0 -202 -61l-29 104q51 33 117.5 50.5t132.5 17.5q116 0 175.5 -57.5t59.5 -165.5l-2 -33l-29 -354h-139l8 96q-27 -51 -74.5 -78.5t-109.5 -27.5q-88 0 -144.5 50t-56.5 128zM242 1022q0 -37 28.5 -60.5 t69.5 -23.5q66 0 109 41t47 106l2 29h-43q-119 0 -166 -20.5t-47 -71.5z" />
<glyph unicode="&#xab;" horiz-adv-x="903" d="M125 502l6 84l221 325l117 -49l-186 -319l133 -322l-121 -47zM496 502l6 84l221 325l117 -49l-186 -319l133 -322l-121 -47z" />
<glyph unicode="&#xac;" d="M133 733l10 125h1000l-43 -553h-125l33 428h-875z" />
<glyph unicode="&#xad;" horiz-adv-x="870" d="M147 477l11 137h573l-10 -137h-574z" />
<glyph unicode="&#xae;" horiz-adv-x="1669" d="M121 723q0 205 96 372t264 263t373 96t372 -96t263 -263t96 -372t-96 -372t-264 -264t-371 -97q-205 0 -372 97t-264 264t-97 372zM217 723q0 -180 84 -326.5t229.5 -230.5t323.5 -84t323.5 84t228.5 230.5t83 326.5t-83 325.5t-228.5 229.5t-323.5 84t-323.5 -84 t-229.5 -229.5t-84 -325.5zM512 291l68 864h342q147 0 224 -62.5t77 -181.5q0 -106 -62.5 -174.5t-175.5 -87.5q66 -18 105 -94l137 -264h-170l-139 276q-20 39 -47 54.5t-74 15.5h-107l-26 -346h-152zM698 754h205q84 0 127 38.5t43 112.5q0 68 -41 98.5t-131 30.5h-180z " />
<glyph unicode="&#xaf;" horiz-adv-x="614" d="M61 1274l10 125h613l-11 -125h-612z" />
<glyph unicode="&#xb0;" horiz-adv-x="747" d="M129 1157q0 84 39 151.5t107.5 106.5t150.5 39t150.5 -39t107.5 -106.5t39 -151.5t-39 -151.5t-107.5 -106.5t-150.5 -39t-150.5 39t-107.5 106.5t-39 151.5zM246 1157q0 -82 51 -135t129 -53q80 0 131 53t51 135t-51 135.5t-131 53.5q-78 0 -129 -53.5t-51 -135.5z" />
<glyph unicode="&#xb1;" d="M76 0l10 129h999l-10 -129h-999zM123 604l10 127h436l29 352h127l-29 -352h437l-11 -127h-436l-29 -352h-125l29 352h-438z" />
<glyph unicode="&#xb2;" horiz-adv-x="778" d="M117 578l8 111l317 319q63 66 91 114t28 97q0 55 -35 84t-98 29q-55 0 -119.5 -24.5t-120.5 -67.5l-41 108q59 47 138 75.5t161 28.5q123 0 195 -60t72 -163q0 -76 -39 -146.5t-129 -154.5l-238 -227h395l-10 -123h-575z" />
<glyph unicode="&#xb3;" horiz-adv-x="778" d="M84 676l57 107q123 -92 244 -92q78 0 125 34.5t47 104.5q0 127 -160 127h-114l8 119h96q86 0 133 36.5t47 108.5q0 53 -35.5 82t-97.5 29q-57 0 -123.5 -24.5t-122.5 -67.5l-41 108q59 47 138 75.5t161 28.5q123 0 195 -59t72 -151q0 -82 -42 -137.5t-112 -82.5 q68 -20 104.5 -69t36.5 -123q0 -121 -85 -190.5t-222 -69.5q-86 0 -168 29.5t-141 76.5z" />
<glyph unicode="&#xb4;" horiz-adv-x="614" d="M299 1128l231 414h199l-316 -414h-114z" />
<glyph unicode="&#xb5;" horiz-adv-x="1148" d="M82 -369l106 1366h166l-49 -604q-2 -14 -2 -43q0 -225 215 -225q133 0 213 83t90 226l45 563h166l-78 -997h-161l12 162q-51 -84 -137 -130t-193 -46q-123 0 -196 55l-31 -410h-166z" />
<glyph unicode="&#xb6;" horiz-adv-x="1191" d="M133 1008q0 195 117 315.5t325 120.5h515l-144 -1813h-137l133 1688h-242l-133 -1688h-137l80 1004q-168 4 -272.5 105.5t-104.5 267.5z" />
<glyph unicode="&#xb7;" horiz-adv-x="468" d="M125 440l16 209h209l-16 -209h-209z" />
<glyph unicode="&#xb8;" horiz-adv-x="614" d="M66 -356l28 88q80 -29 156 -29q55 0 86 18.5t31 53.5q0 27 -18.5 41t-53.5 14q-43 0 -90 -18l-37 32l39 197h115l-25 -127q12 2 39 2q70 0 111.5 -36t41.5 -101q0 -78 -63.5 -126t-175.5 -48q-45 0 -96.5 10t-87.5 29z" />
<glyph unicode="&#xb9;" horiz-adv-x="778" d="M219 578l8 123h156l47 575l-147 -86l-56 109l250 145h113l-60 -743h156l-10 -123h-457z" />
<glyph unicode="&#xba;" horiz-adv-x="700" d="M94 1116q0 154 89 246t237 92q131 0 210 -78t79 -207q0 -152 -89.5 -243.5t-238.5 -91.5q-131 0 -209 77.5t-78 204.5zM242 1120q0 -82 36.5 -126t106.5 -44q84 0 130 57.5t46 159.5q0 82 -38 126t-107 44q-84 0 -129 -58t-45 -159z" />
<glyph unicode="&#xbb;" horiz-adv-x="899" d="M68 223l190 320l-135 321l121 47l172 -325l-6 -84l-224 -328zM439 223l190 320l-135 321l121 47l172 -325l-6 -84l-224 -328z" />
<glyph unicode="&#xbc;" horiz-adv-x="1910" d="M219 578l8 122h156l47 576l-147 -86l-56 108l250 146h113l-60 -744h156l-10 -122h-457zM436 25l965 1470l110 -76l-964 -1470zM1178 170l8 109l459 587h121l-45 -579h127l-8 -117h-129l-13 -170h-141l12 170h-391zM1326 287h253l27 360z" />
<glyph unicode="&#xbd;" horiz-adv-x="1910" d="M219 578l8 122h156l47 576l-147 -86l-56 108l250 146h113l-60 -744h156l-10 -122h-457zM436 25l965 1470l110 -76l-964 -1470zM1205 0l8 111l317 319q63 66 91 114t28 97q0 55 -35 84t-98 29q-55 0 -119.5 -24.5t-120.5 -67.5l-41 108q59 47 138 75.5t161 28.5 q123 0 195 -60t72 -163q0 -76 -39 -146.5t-129 -154.5l-238 -227h395l-10 -123h-575z" />
<glyph unicode="&#xbe;" horiz-adv-x="1910" d="M84 676l57 106q123 -92 244 -92q78 0 125 35t47 104q0 127 -160 127h-114l8 119h96q86 0 133 37t47 109q0 53 -35.5 81.5t-97.5 28.5q-57 0 -123.5 -24.5t-122.5 -67.5l-41 109q59 47 138.5 75.5t160.5 28.5q123 0 195 -59.5t72 -151.5q0 -82 -42 -137t-112 -82 q68 -21 104.5 -70t36.5 -123q0 -121 -85 -190.5t-222 -69.5q-86 0 -168 30t-141 77zM436 25l965 1470l110 -76l-964 -1470zM1178 170l8 109l459 587h121l-45 -579h127l-8 -117h-129l-13 -170h-141l12 170h-391zM1326 287h253l27 360z" />
<glyph unicode="&#xbf;" horiz-adv-x="907" d="M4 -88q0 78 28.5 140.5t70.5 107.5t114 108q96 84 149.5 151.5t69.5 164.5l8 37h99l-4 -52q-6 -86 -36 -152.5t-69 -112.5t-104 -109q-80 -76 -118 -131.5t-38 -131.5q0 -82 59.5 -128t161.5 -46q201 0 402 166l53 -129q-92 -84 -216 -131t-249 -47q-176 0 -278.5 82 t-102.5 213zM401 786l15 211h211l-17 -211h-209z" />
<glyph unicode="&#xc0;" horiz-adv-x="1488" d="M-2 0l747 1444h146l522 -1444h-168l-131 371h-754l-186 -371h-176zM432 510h633l-260 739zM529 1878h172l186 -311h-115z" />
<glyph unicode="&#xc1;" horiz-adv-x="1488" d="M-2 0l747 1444h146l522 -1444h-168l-131 371h-754l-186 -371h-176zM432 510h633l-260 739zM772 1567l226 311h192l-303 -311h-115z" />
<glyph unicode="&#xc2;" horiz-adv-x="1488" d="M-2 0l747 1444h146l522 -1444h-168l-131 371h-754l-186 -371h-176zM432 510h633l-260 739zM531 1567l268 311h111l219 -311h-148l-129 211l-170 -211h-151z" />
<glyph unicode="&#xc3;" horiz-adv-x="1488" d="M-2 0l747 1444h146l522 -1444h-168l-131 371h-754l-186 -371h-176zM432 510h633l-260 739zM504 1610q6 116 60.5 175.5t140.5 59.5q41 0 79 -17.5t87 -49.5q39 -25 65.5 -38.5t48.5 -13.5q45 0 73 30t32 83h92q-6 -115 -61.5 -175t-141.5 -60q-41 0 -76.5 17t-89.5 50 q-37 25 -63.5 38t-48.5 13q-45 0 -74 -29.5t-33 -82.5h-90z" />
<glyph unicode="&#xc4;" horiz-adv-x="1488" d="M-2 0l747 1444h146l522 -1444h-168l-131 371h-754l-186 -371h-176zM432 510h633l-260 739zM570 1636l14 176h182l-14 -176h-182zM920 1636l14 176h182l-14 -176h-182z" />
<glyph unicode="&#xc5;" horiz-adv-x="1488" d="M88 0l453 1061l237 325q-70 16 -115 70.5t-45 126.5q0 86 61.5 144.5t147.5 58.5t146.5 -58.5t60.5 -144.5q0 -80 -54 -137t-132 -66l420 -997l61 -383l-162 371h-805l-28 -58zM428 510h680l-217 498l-70 313zM727 1583q0 -43 28.5 -72.5t71.5 -29.5t71 29.5t28 72.5 t-28 73t-71 30t-71.5 -30t-28.5 -73z" />
<glyph unicode="&#xc6;" horiz-adv-x="2029" d="M-43 0l991 1444h1055l-10 -141h-879l68 -500h731l-12 -139h-701l72 -523h631l-13 -141h-753l-52 371h-690l-248 -371h-190zM489 510h578l-96 717z" />
<glyph unicode="&#xc7;" horiz-adv-x="1386" d="M141 662q0 242 85 422t242 278t370 98q158 0 287.5 -46t222.5 -136l-74 -127q-96 88 -197.5 126t-236.5 38q-248 0 -386.5 -174t-138.5 -482q0 -254 121 -392t346 -138q229 0 424 166l56 -129q-182 -172 -476 -182l-14 -70q12 2 39 2q70 0 112 -36t42 -101 q0 -78 -63.5 -126t-176.5 -48q-45 0 -96 10t-88 29l28 88q80 -29 156 -29q55 0 86 18.5t31 53.5q0 27 -18.5 41t-53.5 14q-43 0 -90 -18l-37 32l29 144q-246 29 -388.5 207t-142.5 467z" />
<glyph unicode="&#xc8;" horiz-adv-x="1191" d="M139 0l113 1444h913l-10 -139h-747l-39 -502h706l-12 -139h-705l-41 -525h748l-12 -139h-914zM447 1878h172l186 -311h-115z" />
<glyph unicode="&#xc9;" horiz-adv-x="1191" d="M139 0l113 1444h913l-10 -139h-747l-39 -502h706l-12 -139h-705l-41 -525h748l-12 -139h-914zM690 1567l226 311h192l-303 -311h-115z" />
<glyph unicode="&#xca;" horiz-adv-x="1191" d="M139 0l113 1444h913l-10 -139h-747l-39 -502h706l-12 -139h-705l-41 -525h748l-12 -139h-914zM449 1567l268 311h111l219 -311h-148l-129 211l-170 -211h-151z" />
<glyph unicode="&#xcb;" horiz-adv-x="1191" d="M139 0l113 1444h913l-10 -139h-747l-39 -502h706l-12 -139h-705l-41 -525h748l-12 -139h-914zM488 1636l14 176h182l-14 -176h-182zM838 1636l14 176h182l-14 -176h-182z" />
<glyph unicode="&#xcc;" horiz-adv-x="524" d="M45 1878h172l186 -311h-115zM139 0l113 1444h168l-113 -1444h-168z" />
<glyph unicode="&#xcd;" horiz-adv-x="524" d="M139 0l113 1444h168l-113 -1444h-168zM288 1567l226 311h192l-303 -311h-115z" />
<glyph unicode="&#xce;" horiz-adv-x="524" d="M47 1567l268 311h111l219 -311h-148l-129 211l-170 -211h-151zM139 0l113 1444h168l-113 -1444h-168z" />
<glyph unicode="&#xcf;" horiz-adv-x="524" d="M86 1636l14 176h182l-14 -176h-182zM139 0l113 1444h168l-113 -1444h-168zM436 1636l14 176h182l-14 -176h-182z" />
<glyph unicode="&#xd0;" horiz-adv-x="1540" d="M29 664l10 137h190l50 643h477q325 0 501.5 -174t176.5 -490q0 -244 -86 -419t-252 -268t-400 -93h-530l51 664h-188zM346 143h342q283 0 428.5 164t145.5 475q0 256 -130.5 387t-388.5 131h-307l-39 -499h394l-11 -137h-393z" />
<glyph unicode="&#xd1;" horiz-adv-x="1513" d="M139 0l113 1444h131l776 -1157l92 1157h158l-113 -1444h-129l-778 1161l-92 -1161h-158zM514 1610q6 116 60.5 175.5t140.5 59.5q41 0 79 -17.5t87 -49.5q39 -25 65.5 -38.5t48.5 -13.5q45 0 73 30t32 83h92q-6 -115 -61.5 -175t-141.5 -60q-41 0 -76.5 17t-89.5 50 q-37 25 -63.5 38t-48.5 13q-45 0 -74 -29.5t-33 -82.5h-90z" />
<glyph unicode="&#xd2;" horiz-adv-x="1564" d="M141 662q0 242 83 423t235.5 279t355.5 98q199 0 343.5 -82t222 -235.5t77.5 -364.5q0 -240 -83 -421t-235.5 -279t-355.5 -98q-198 0 -342.5 81.5t-222.5 235.5t-78 363zM313 659q0 -256 123 -394t348 -138q156 0 268.5 79t173 226.5t60.5 349.5q0 258 -123 396.5 t-348 138.5q-156 0 -268.5 -79t-173 -226.5t-60.5 -352.5zM566 1878h172l186 -311h-115z" />
<glyph unicode="&#xd3;" horiz-adv-x="1564" d="M141 662q0 242 83 423t235.5 279t355.5 98q199 0 343.5 -82t222 -235.5t77.5 -364.5q0 -240 -83 -421t-235.5 -279t-355.5 -98q-198 0 -342.5 81.5t-222.5 235.5t-78 363zM313 659q0 -256 123 -394t348 -138q156 0 268.5 79t173 226.5t60.5 349.5q0 258 -123 396.5 t-348 138.5q-156 0 -268.5 -79t-173 -226.5t-60.5 -352.5zM809 1567l226 311h192l-303 -311h-115z" />
<glyph unicode="&#xd4;" horiz-adv-x="1564" d="M141 662q0 242 83 423t235.5 279t355.5 98q199 0 343.5 -82t222 -235.5t77.5 -364.5q0 -240 -83 -421t-235.5 -279t-355.5 -98q-198 0 -342.5 81.5t-222.5 235.5t-78 363zM313 659q0 -256 123 -394t348 -138q156 0 268.5 79t173 226.5t60.5 349.5q0 258 -123 396.5 t-348 138.5q-156 0 -268.5 -79t-173 -226.5t-60.5 -352.5zM568 1567l268 311h111l219 -311h-148l-129 211l-170 -211h-151z" />
<glyph unicode="&#xd5;" horiz-adv-x="1564" d="M141 662q0 242 83 423t235.5 279t355.5 98q199 0 343.5 -82t222 -235.5t77.5 -364.5q0 -240 -83 -421t-235.5 -279t-355.5 -98q-198 0 -342.5 81.5t-222.5 235.5t-78 363zM313 659q0 -256 123 -394t348 -138q156 0 268.5 79t173 226.5t60.5 349.5q0 258 -123 396.5 t-348 138.5q-156 0 -268.5 -79t-173 -226.5t-60.5 -352.5zM541 1610q6 116 60.5 175.5t140.5 59.5q41 0 79 -17.5t87 -49.5q39 -25 65.5 -38.5t48.5 -13.5q45 0 73 30t32 83h92q-6 -115 -61.5 -175t-141.5 -60q-41 0 -76.5 17t-89.5 50q-37 25 -63.5 38t-48.5 13 q-45 0 -74 -29.5t-33 -82.5h-90z" />
<glyph unicode="&#xd6;" horiz-adv-x="1564" d="M141 662q0 242 83 423t235.5 279t355.5 98q199 0 343.5 -82t222 -235.5t77.5 -364.5q0 -240 -83 -421t-235.5 -279t-355.5 -98q-198 0 -342.5 81.5t-222.5 235.5t-78 363zM313 659q0 -256 123 -394t348 -138q156 0 268.5 79t173 226.5t60.5 349.5q0 258 -123 396.5 t-348 138.5q-156 0 -268.5 -79t-173 -226.5t-60.5 -352.5zM607 1636l14 176h182l-14 -176h-182zM957 1636l14 176h182l-14 -176h-182z" />
<glyph unicode="&#xd7;" d="M152 193l380 389l-360 391l98 90l357 -387l381 387l82 -90l-381 -387l360 -393l-96 -89l-357 388l-380 -388z" />
<glyph unicode="&#xd8;" horiz-adv-x="1564" d="M141 662q0 242 83 423t235.5 279t355.5 98q197 0 342 -82l107 160l112 -72l-110 -168q94 -88 143 -220t49 -300q0 -240 -83 -421t-235.5 -279t-355.5 -98q-193 0 -342 79l-104 -157l-113 71l111 166q-94 88 -144.5 220.5t-50.5 300.5zM313 659q0 -246 113 -383l647 977 q-109 63 -258 64q-156 0 -268.5 -79t-173 -226.5t-60.5 -352.5zM528 190q102 -63 256 -63q156 0 268.5 79t173 226.5t60.5 349.5q0 244 -110 383z" />
<glyph unicode="&#xd9;" horiz-adv-x="1482" d="M170 494q0 49 2 75l70 875h166l-68 -873q-2 -23 -2 -65q0 -190 94 -284.5t287 -94.5q201 0 309.5 102.5t122.5 317.5l70 897h168l-70 -881q-23 -291 -175.5 -435t-428.5 -144q-271 0 -408 131t-137 379zM525 1878h172l186 -311h-115z" />
<glyph unicode="&#xda;" horiz-adv-x="1482" d="M170 494q0 49 2 75l70 875h166l-68 -873q-2 -23 -2 -65q0 -190 94 -284.5t287 -94.5q201 0 309.5 102.5t122.5 317.5l70 897h168l-70 -881q-23 -291 -175.5 -435t-428.5 -144q-271 0 -408 131t-137 379zM768 1567l226 311h192l-303 -311h-115z" />
<glyph unicode="&#xdb;" horiz-adv-x="1482" d="M170 494q0 49 2 75l70 875h166l-68 -873q-2 -23 -2 -65q0 -190 94 -284.5t287 -94.5q201 0 309.5 102.5t122.5 317.5l70 897h168l-70 -881q-23 -291 -175.5 -435t-428.5 -144q-271 0 -408 131t-137 379zM527 1567l268 311h111l219 -311h-148l-129 211l-170 -211h-151z " />
<glyph unicode="&#xdc;" horiz-adv-x="1482" d="M170 494q0 49 2 75l70 875h166l-68 -873q-2 -23 -2 -65q0 -190 94 -284.5t287 -94.5q201 0 309.5 102.5t122.5 317.5l70 897h168l-70 -881q-23 -291 -175.5 -435t-428.5 -144q-271 0 -408 131t-137 379zM566 1636l14 176h182l-14 -176h-182zM916 1636l14 176h182 l-14 -176h-182z" />
<glyph unicode="&#xdd;" horiz-adv-x="1230" d="M37 1444h190l410 -621l508 621h194l-626 -760l-54 -684h-167l53 682zM641 1567l226 311h192l-303 -311h-115z" />
<glyph unicode="&#xde;" horiz-adv-x="1320" d="M139 0l113 1444h166l-25 -318h418q209 0 322.5 -94t113.5 -274q0 -197 -124 -306.5t-357 -109.5h-434l-27 -342h-166zM342 479h416q325 1 325 271q0 123 -71.5 180t-214.5 57h-414z" />
<glyph unicode="&#xdf;" horiz-adv-x="1261" d="M115 0l78 987q18 231 148 349t337 118q156 0 248 -65.5t92 -182.5q0 -90 -47 -153.5t-135 -139.5q-68 -57 -98.5 -94t-30.5 -82q0 -59 48 -91t150 -71q90 -33 145.5 -62.5t94.5 -82.5t39 -135q0 -137 -105.5 -223t-283.5 -86q-102 0 -201.5 33.5t-173.5 95.5l65 123 q82 -59 160 -88t162 -29q98 0 156.5 43t58.5 119q0 61 -50 94t-155 72q-88 33 -143.5 60.5t-93 76.5t-37.5 127q0 82 44 140t128 128q74 63 108.5 107.5t34.5 101.5q0 61 -48 96t-136 35q-289 0 -314 -330l-79 -991h-166z" />
<glyph unicode="&#xe0;" horiz-adv-x="1085" d="M104 272q0 113 59.5 179.5t190.5 97.5t355 31h73l4 59l2 39q0 106 -51 156.5t-162 50.5q-168 0 -337 -107l-45 123q76 53 186 87t215 34q354 0 354 -340q0 -37 -2 -57l-49 -625h-162l13 160q-45 -86 -124 -130t-180 -44q-150 0 -245 80.5t-95 205.5zM272 287 q0 -78 55.5 -124t151.5 -46q117 0 199 82t90 211l4 63h-57q-180 0 -275.5 -19.5t-131.5 -58.5t-36 -108zM313 1542h178l176 -414h-114z" />
<glyph unicode="&#xe1;" horiz-adv-x="1085" d="M104 272q0 113 59.5 179.5t190.5 97.5t355 31h73l4 59l2 39q0 106 -51 156.5t-162 50.5q-168 0 -337 -107l-45 123q76 53 186 87t215 34q354 0 354 -340q0 -37 -2 -57l-49 -625h-162l13 160q-45 -86 -124 -130t-180 -44q-150 0 -245 80.5t-95 205.5zM272 287 q0 -78 55.5 -124t151.5 -46q117 0 199 82t90 211l4 63h-57q-180 0 -275.5 -19.5t-131.5 -58.5t-36 -108zM553 1128l231 414h199l-316 -414h-114z" />
<glyph unicode="&#xe2;" horiz-adv-x="1085" d="M104 272q0 113 59.5 179.5t190.5 97.5t355 31h73l4 59l2 39q0 106 -51 156.5t-162 50.5q-168 0 -337 -107l-45 123q76 53 186 87t215 34q354 0 354 -340q0 -37 -2 -57l-49 -625h-162l13 160q-45 -86 -124 -130t-180 -44q-150 0 -245 80.5t-95 205.5zM272 287 q0 -78 55.5 -124t151.5 -46q117 0 199 82t90 211l4 63h-57q-180 0 -275.5 -19.5t-131.5 -58.5t-36 -108zM311 1128l274 414h117l207 -414h-147l-127 293l-168 -293h-156z" />
<glyph unicode="&#xe3;" horiz-adv-x="1085" d="M104 272q0 113 59.5 179.5t190.5 97.5t355 31h73l4 59l2 39q0 106 -51 156.5t-162 50.5q-168 0 -337 -107l-45 123q76 53 186 87t215 34q354 0 354 -340q0 -37 -2 -57l-49 -625h-162l13 160q-45 -86 -124 -130t-180 -44q-150 0 -245 80.5t-95 205.5zM272 287 q0 -78 55.5 -124t151.5 -46q117 0 199 82t90 211l4 63h-57q-180 0 -275.5 -19.5t-131.5 -58.5t-36 -108zM288 1225q7 114 61 173.5t138 59.5q41 0 76 -15.5t92 -49.5q39 -25 65.5 -38.5t51.5 -13.5q45 0 71.5 29t30.5 82h92q-6 -115 -60 -174t-138 -59q-43 0 -81 17t-87 50 q-43 27 -67.5 38t-47.5 11q-45 0 -73.5 -29.5t-32.5 -80.5h-91z" />
<glyph unicode="&#xe4;" horiz-adv-x="1085" d="M104 272q0 113 59.5 179.5t190.5 97.5t355 31h73l4 59l2 39q0 106 -51 156.5t-162 50.5q-168 0 -337 -107l-45 123q76 53 186 87t215 34q354 0 354 -340q0 -37 -2 -57l-49 -625h-162l13 160q-45 -86 -124 -130t-180 -44q-150 0 -245 80.5t-95 205.5zM272 287 q0 -78 55.5 -124t151.5 -46q117 0 199 82t90 211l4 63h-57q-180 0 -275.5 -19.5t-131.5 -58.5t-36 -108zM354 1249l14 174h183l-15 -174h-182zM704 1249l14 174h183l-15 -174h-182z" />
<glyph unicode="&#xe5;" horiz-adv-x="1085" d="M104 272q0 113 59.5 179.5t190.5 97.5t355 31h73l4 59l2 39q0 106 -51 156.5t-162 50.5q-168 0 -337 -107l-45 123q76 53 186 87t215 34q354 0 354 -340q0 -37 -2 -57l-49 -625h-162l13 160q-45 -86 -124 -130t-180 -44q-150 0 -245 80.5t-95 205.5zM272 287 q0 -78 55.5 -124t151.5 -46q117 0 199 82t90 211l4 63h-57q-180 0 -275.5 -19.5t-131.5 -58.5t-36 -108zM419 1335q0 86 60.5 144.5t146.5 58.5t146.5 -58.5t60.5 -144.5t-60.5 -144t-146.5 -58t-146.5 58t-60.5 144zM528 1335q0 -43 27.5 -72.5t70.5 -29.5t71 29.5t28 72.5 t-28 73t-71 30t-70.5 -30t-27.5 -73z" />
<glyph unicode="&#xe6;" horiz-adv-x="1746" d="M104 272q0 113 59.5 179.5t190.5 97.5t355 31h77l5 59q2 14 2 43q0 102 -52.5 152.5t-160.5 50.5q-172 0 -342 -107l-45 123q76 53 186 87t217 34q244 0 317 -166q61 80 150.5 123t202.5 43q184 0 291.5 -114.5t107.5 -334.5q0 -47 -6 -100h-719v-8q0 -164 81 -254 t236 -90q78 0 159 29.5t153 87.5l45 -123q-59 -57 -162.5 -93t-200.5 -36q-154 0 -258 65.5t-153 188.5q-51 -121 -153.5 -187.5t-235.5 -66.5q-154 0 -250.5 79.5t-96.5 206.5zM272 285q0 -76 55.5 -122t147.5 -46q121 0 204 85t95 220l4 51h-63q-180 0 -275.5 -19.5 t-131.5 -59.5t-36 -109zM948 580h570q6 154 -61.5 233.5t-186.5 79.5q-135 0 -217 -81t-105 -232z" />
<glyph unicode="&#xe7;" horiz-adv-x="980" d="M94 467q0 168 61.5 293t176 193.5t270.5 68.5q109 0 202 -35t161 -96l-64 -123q-76 59 -147.5 87t-151.5 28q-160 0 -248 -110.5t-88 -307.5q0 -162 80 -252t225 -90q78 0 145.5 27.5t141.5 87.5l47 -123q-63 -60 -153 -93.5t-189 -35.5l-14 -72q12 2 39 2 q70 0 111.5 -36t41.5 -101q0 -78 -63.5 -126t-175.5 -48q-45 0 -96.5 10t-88.5 29l29 88q80 -29 156 -29q55 0 85.5 18.5t30.5 53.5q0 27 -18 41t-53 14q-43 0 -90 -18l-37 32l31 152q-166 33 -261.5 158t-95.5 313z" />
<glyph unicode="&#xe8;" horiz-adv-x="1079" d="M94 469q0 162 61.5 288t172 195.5t258.5 69.5q190 0 300.5 -113.5t110.5 -335.5q0 -47 -6 -100h-731v-8q0 -164 81 -254t234 -90q182 0 326 117l47 -123q-61 -59 -166.5 -94t-214.5 -35q-217 0 -345 131t-128 352zM268 580h582q6 156 -63.5 234.5t-194.5 78.5 q-137 0 -219 -81t-105 -232zM317 1542h178l176 -414h-114z" />
<glyph unicode="&#xe9;" horiz-adv-x="1079" d="M94 469q0 162 61.5 288t172 195.5t258.5 69.5q190 0 300.5 -113.5t110.5 -335.5q0 -47 -6 -100h-731v-8q0 -164 81 -254t234 -90q182 0 326 117l47 -123q-61 -59 -166.5 -94t-214.5 -35q-217 0 -345 131t-128 352zM268 580h582q6 156 -63.5 234.5t-194.5 78.5 q-137 0 -219 -81t-105 -232zM557 1128l231 414h199l-316 -414h-114z" />
<glyph unicode="&#xea;" horiz-adv-x="1079" d="M94 469q0 162 61.5 288t172 195.5t258.5 69.5q190 0 300.5 -113.5t110.5 -335.5q0 -47 -6 -100h-731v-8q0 -164 81 -254t234 -90q182 0 326 117l47 -123q-61 -59 -166.5 -94t-214.5 -35q-217 0 -345 131t-128 352zM268 580h582q6 156 -63.5 234.5t-194.5 78.5 q-137 0 -219 -81t-105 -232zM315 1128l274 414h117l207 -414h-147l-127 293l-168 -293h-156z" />
<glyph unicode="&#xeb;" horiz-adv-x="1079" d="M94 469q0 162 61.5 288t172 195.5t258.5 69.5q190 0 300.5 -113.5t110.5 -335.5q0 -47 -6 -100h-731v-8q0 -164 81 -254t234 -90q182 0 326 117l47 -123q-61 -59 -166.5 -94t-214.5 -35q-217 0 -345 131t-128 352zM268 580h582q6 156 -63.5 234.5t-194.5 78.5 q-137 0 -219 -81t-105 -232zM358 1249l14 174h183l-15 -174h-182zM708 1249l14 174h183l-15 -174h-182z" />
<glyph unicode="&#xec;" horiz-adv-x="475" d="M-10 1542h178l176 -414h-114zM115 0l80 997h165l-79 -997h-166z" />
<glyph unicode="&#xed;" horiz-adv-x="475" d="M115 0l80 997h165l-79 -997h-166zM230 1128l231 414h199l-316 -414h-114z" />
<glyph unicode="&#xee;" horiz-adv-x="475" d="M-12 1128l274 414h117l207 -414h-147l-127 293l-168 -293h-156zM115 0l80 997h165l-79 -997h-166z" />
<glyph unicode="&#xef;" horiz-adv-x="475" d="M31 1249l14 174h183l-15 -174h-182zM115 0l80 997h165l-79 -997h-166zM381 1249l14 174h183l-15 -174h-182z" />
<glyph unicode="&#xf0;" horiz-adv-x="1144" d="M90 430q0 150 60.5 263.5t169 176t249.5 62.5q117 0 203 -43t133 -123q-18 215 -160 369l-339 -119l-27 104l274 97q-109 80 -266 122l51 119q223 -57 373 -188l268 94l27 -104l-215 -74q170 -211 170 -529q0 -342 -136.5 -506.5t-371.5 -164.5q-211 0 -337 120.5 t-126 323.5zM258 426q0 -145 77 -224t220 -79q152 0 234.5 100.5t82.5 276.5q0 137 -78.5 217t-218.5 80q-150 0 -233.5 -100.5t-83.5 -270.5z" />
<glyph unicode="&#xf1;" horiz-adv-x="1163" d="M115 0l80 997h161l-12 -153q51 84 139 131t199 47q168 0 256 -88t88 -256q0 -37 -2 -55l-49 -623h-166l49 612q2 14 2 43q0 227 -219 228q-139 0 -221 -83t-94 -229l-45 -571h-166zM311 1225q7 114 61 173.5t138 59.5q41 0 76 -15.5t92 -49.5q39 -25 65.5 -38.5 t51.5 -13.5q45 0 71.5 29t30.5 82h92q-6 -115 -60 -174t-138 -59q-43 0 -81 17t-87 50q-43 27 -67.5 38t-47.5 11q-45 0 -73.5 -29.5t-32.5 -80.5h-91z" />
<glyph unicode="&#xf2;" horiz-adv-x="1136" d="M94 469q0 166 60.5 291t170 193.5t255.5 68.5q141 0 245.5 -59.5t161.5 -170t57 -255.5q0 -166 -60 -291t-171 -192.5t-256 -67.5q-139 0 -244.5 59t-162 169t-56.5 255zM262 463q0 -166 76 -253t221 -87q150 0 232.5 112.5t82.5 307.5q0 164 -76.5 253t-217.5 89 q-150 0 -234 -115t-84 -307zM319 1542h178l176 -414h-114z" />
<glyph unicode="&#xf3;" horiz-adv-x="1136" d="M94 469q0 166 60.5 291t170 193.5t255.5 68.5q141 0 245.5 -59.5t161.5 -170t57 -255.5q0 -166 -60 -291t-171 -192.5t-256 -67.5q-139 0 -244.5 59t-162 169t-56.5 255zM262 463q0 -166 76 -253t221 -87q150 0 232.5 112.5t82.5 307.5q0 164 -76.5 253t-217.5 89 q-150 0 -234 -115t-84 -307zM559 1128l231 414h199l-316 -414h-114z" />
<glyph unicode="&#xf4;" horiz-adv-x="1136" d="M94 469q0 166 60.5 291t170 193.5t255.5 68.5q141 0 245.5 -59.5t161.5 -170t57 -255.5q0 -166 -60 -291t-171 -192.5t-256 -67.5q-139 0 -244.5 59t-162 169t-56.5 255zM262 463q0 -166 76 -253t221 -87q150 0 232.5 112.5t82.5 307.5q0 164 -76.5 253t-217.5 89 q-150 0 -234 -115t-84 -307zM317 1128l274 414h117l207 -414h-147l-127 293l-168 -293h-156z" />
<glyph unicode="&#xf5;" horiz-adv-x="1136" d="M94 469q0 166 60.5 291t170 193.5t255.5 68.5q141 0 245.5 -59.5t161.5 -170t57 -255.5q0 -166 -60 -291t-171 -192.5t-256 -67.5q-139 0 -244.5 59t-162 169t-56.5 255zM262 463q0 -166 76 -253t221 -87q150 0 232.5 112.5t82.5 307.5q0 164 -76.5 253t-217.5 89 q-150 0 -234 -115t-84 -307zM294 1225q7 114 61 173.5t138 59.5q41 0 76 -15.5t92 -49.5q39 -25 65.5 -38.5t51.5 -13.5q45 0 71.5 29t30.5 82h92q-6 -115 -60 -174t-138 -59q-43 0 -81 17t-87 50q-43 27 -67.5 38t-47.5 11q-45 0 -73.5 -29.5t-32.5 -80.5h-91z" />
<glyph unicode="&#xf6;" horiz-adv-x="1136" d="M94 469q0 166 60.5 291t170 193.5t255.5 68.5q141 0 245.5 -59.5t161.5 -170t57 -255.5q0 -166 -60 -291t-171 -192.5t-256 -67.5q-139 0 -244.5 59t-162 169t-56.5 255zM262 463q0 -166 76 -253t221 -87q150 0 232.5 112.5t82.5 307.5q0 164 -76.5 253t-217.5 89 q-150 0 -234 -115t-84 -307zM360 1249l14 174h183l-15 -174h-182zM710 1249l14 174h183l-15 -174h-182z" />
<glyph unicode="&#xf7;" d="M117 518l10 129h999l-12 -129h-997zM473 78l16 194h191l-14 -194h-193zM539 891l14 194h192l-16 -194h-190z" />
<glyph unicode="&#xf8;" horiz-adv-x="1136" d="M94 469q0 166 60.5 291t170 193.5t255.5 68.5q129 0 231 -51l86 129l94 -58l-90 -135q70 -65 106.5 -159.5t36.5 -210.5q0 -166 -60 -291t-171 -192.5t-256 -67.5q-127 0 -229 51l-86 -131l-95 59l91 135q-70 63 -107 157.5t-37 211.5zM262 463q1 -146 60 -234l409 621 q-63 35 -151 35q-152 0 -235 -114t-83 -308zM406 156q66 -35 153 -35q152 0 235 113.5t83 308.5q0 147 -62 233z" />
<glyph unicode="&#xf9;" horiz-adv-x="1148" d="M137 328q0 37 2 55l49 614h166l-49 -604q-2 -14 -2 -43q0 -225 215 -225q133 0 213 82t90 227l45 563h166l-78 -997h-161l12 162q-51 -84 -137 -130t-193 -46q-166 0 -252 87t-86 255zM326 1542h178l176 -414h-114z" />
<glyph unicode="&#xfa;" horiz-adv-x="1148" d="M137 328q0 37 2 55l49 614h166l-49 -604q-2 -14 -2 -43q0 -225 215 -225q133 0 213 82t90 227l45 563h166l-78 -997h-161l12 162q-51 -84 -137 -130t-193 -46q-166 0 -252 87t-86 255zM566 1128l231 414h199l-316 -414h-114z" />
<glyph unicode="&#xfb;" horiz-adv-x="1148" d="M137 328q0 37 2 55l49 614h166l-49 -604q-2 -14 -2 -43q0 -225 215 -225q133 0 213 82t90 227l45 563h166l-78 -997h-161l12 162q-51 -84 -137 -130t-193 -46q-166 0 -252 87t-86 255zM324 1128l274 414h117l207 -414h-147l-127 293l-168 -293h-156z" />
<glyph unicode="&#xfc;" horiz-adv-x="1148" d="M137 328q0 37 2 55l49 614h166l-49 -604q-2 -14 -2 -43q0 -225 215 -225q133 0 213 82t90 227l45 563h166l-78 -997h-161l12 162q-51 -84 -137 -130t-193 -46q-166 0 -252 87t-86 255zM367 1249l14 174h183l-15 -174h-182zM717 1249l14 174h183l-15 -174h-182z" />
<glyph unicode="&#xfd;" horiz-adv-x="1052" d="M59 995h170l273 -813l401 813h170l-696 -1364h-170l196 383zM521 1128l231 414h199l-316 -414h-114z" />
<glyph unicode="&#xfe;" horiz-adv-x="1191" d="M86 -369l143 1813h166l-47 -594q51 80 138 126t190 46q125 0 221 -59.5t149.5 -169t53.5 -254.5q0 -164 -58.5 -290t-165 -194.5t-245.5 -68.5q-117 0 -204 50t-132 140l-43 -545h-166zM317 467q0 -168 77 -256t222 -88q146 0 230 110.5t84 305.5q0 164 -78 255t-219 91 q-147 0 -231.5 -111.5t-84.5 -306.5z" />
<glyph unicode="&#xff;" horiz-adv-x="1052" d="M59 995h170l273 -813l401 813h170l-696 -1364h-170l196 383zM322 1249l14 174h183l-15 -174h-182zM672 1249l14 174h183l-15 -174h-182z" />
<glyph unicode="&#x152;" horiz-adv-x="2140" d="M141 664q0 244 86 418.5t252 268t400 93.5h1237l-11 -139h-749l-39 -502h706l-12 -139h-706l-41 -525h749l-12 -139h-1182q-326 0 -502 174t-176 490zM313 662q0 -256 130 -389.5t388 -133.5h267l92 1166h-303q-283 0 -428.5 -166t-145.5 -477z" />
<glyph unicode="&#x153;" horiz-adv-x="1851" d="M94 469q0 166 60.5 291t170 193.5t255.5 68.5q287 0 389 -231q57 111 158.5 171t238.5 60q186 0 294.5 -114.5t108.5 -334.5q0 -47 -6 -100h-725v-8q0 -164 82 -254t240 -90q80 0 161 29.5t152 87.5l45 -123q-59 -57 -162.5 -93t-201.5 -36q-145 0 -249 59t-157 170 q-57 -109 -158.5 -169t-236.5 -60q-137 0 -241.5 59t-161 169t-56.5 255zM262 463q0 -166 76 -253t221 -87q150 0 231.5 112.5t81.5 307.5q0 164 -76.5 253t-215.5 89q-150 0 -234 -115t-84 -307zM1047 580h575q6 154 -61.5 233.5t-188.5 79.5q-137 0 -220 -81t-105 -232z " />
<glyph unicode="&#x178;" horiz-adv-x="1230" d="M37 1444h190l410 -621l508 621h194l-626 -760l-54 -684h-167l53 682zM439 1636l14 176h182l-14 -176h-182zM789 1636l14 176h182l-14 -176h-182z" />
<glyph unicode="&#x2c6;" horiz-adv-x="614" d="M57 1128l274 414h117l207 -414h-147l-127 293l-168 -293h-156z" />
<glyph unicode="&#x2dc;" horiz-adv-x="614" d="M34 1225q7 114 61 173.5t138 59.5q41 0 76 -15.5t92 -49.5q39 -25 65.5 -38.5t51.5 -13.5q45 0 71.5 29t30.5 82h92q-6 -115 -60 -174t-138 -59q-43 0 -81 17t-87 50q-43 27 -67.5 38t-47.5 11q-45 0 -73.5 -29.5t-32.5 -80.5h-91z" />
<glyph unicode="&#x2000;" horiz-adv-x="939" />
<glyph unicode="&#x2001;" horiz-adv-x="1878" />
<glyph unicode="&#x2002;" horiz-adv-x="939" />
<glyph unicode="&#x2003;" horiz-adv-x="1878" />
<glyph unicode="&#x2004;" horiz-adv-x="626" />
<glyph unicode="&#x2005;" horiz-adv-x="469" />
<glyph unicode="&#x2006;" horiz-adv-x="313" />
<glyph unicode="&#x2007;" horiz-adv-x="313" />
<glyph unicode="&#x2008;" horiz-adv-x="234" />
<glyph unicode="&#x2009;" horiz-adv-x="375" />
<glyph unicode="&#x200a;" horiz-adv-x="104" />
<glyph unicode="&#x2010;" horiz-adv-x="870" d="M147 477l11 137h573l-10 -137h-574z" />
<glyph unicode="&#x2011;" horiz-adv-x="870" d="M147 477l11 137h573l-10 -137h-574z" />
<glyph unicode="&#x2012;" horiz-adv-x="870" d="M147 477l11 137h573l-10 -137h-574z" />
<glyph unicode="&#x2013;" horiz-adv-x="1024" d="M-2 492l10 106h1024l-10 -106h-1024z" />
<glyph unicode="&#x2014;" horiz-adv-x="2048" d="M-2 492l10 106h2048l-10 -106h-2048z" />
<glyph unicode="&#x2018;" horiz-adv-x="468" d="M170 1012l12 147q6 86 41 158t107 139l71 -61q-86 -86 -102 -174h98l-18 -209h-209z" />
<glyph unicode="&#x2019;" horiz-adv-x="468" d="M182 1061q88 86 105 174h-99l15 209h209l-11 -148q-6 -86 -39.5 -157.5t-107.5 -139.5z" />
<glyph unicode="&#x201a;" horiz-adv-x="468" d="M86 -174q86 90 102 174h-98l16 209h209l-10 -150q-8 -88 -42 -156.5t-105 -135.5z" />
<glyph unicode="&#x201c;" horiz-adv-x="808" d="M170 1012l12 147q6 86 41 158t107 139l71 -61q-86 -86 -102 -174h98l-18 -209h-209zM510 1012l12 147q6 86 41 158t107 139l71 -61q-86 -86 -102 -174h98l-18 -209h-209z" />
<glyph unicode="&#x201d;" horiz-adv-x="808" d="M182 1061q88 86 105 174h-99l15 209h209l-11 -148q-6 -86 -39.5 -157.5t-107.5 -139.5zM522 1061q88 86 105 174h-99l15 209h209l-11 -148q-6 -86 -39.5 -157.5t-107.5 -139.5z" />
<glyph unicode="&#x201e;" horiz-adv-x="808" d="M86 -174q86 90 102 174h-98l16 209h209l-10 -150q-8 -88 -42 -156.5t-105 -135.5zM426 -174q86 90 102 174h-98l16 209h209l-10 -150q-8 -88 -42 -156.5t-105 -135.5z" />
<glyph unicode="&#x2022;" horiz-adv-x="1073" d="M168 543q0 94 48 178t133 135t190 51q98 0 183 -48t136 -131t51 -185q0 -98 -50 -181t-135 -132.5t-185 -49.5q-99 0 -185 48t-136 131t-50 184z" />
<glyph unicode="&#x2026;" horiz-adv-x="1406" d="M90 0l16 209h209l-16 -209h-209zM559 0l16 209h209l-16 -209h-209zM1028 0l16 209h209l-16 -209h-209z" />
<glyph unicode="&#x202f;" horiz-adv-x="375" />
<glyph unicode="&#x2039;" horiz-adv-x="532" d="M125 502l6 84l221 325l117 -49l-186 -319l133 -322l-121 -47z" />
<glyph unicode="&#x203a;" horiz-adv-x="528" d="M68 223l190 320l-135 321l121 47l172 -325l-6 -84l-224 -328z" />
<glyph unicode="&#x205f;" horiz-adv-x="469" />
<glyph unicode="&#x20ac;" d="M35 508l10 121h203v2q0 88 10 186h-199l11 121h206q53 252 193.5 387t349.5 135q276 0 441 -182l-76 -129q-154 168 -363 168q-141 0 -236.5 -97.5t-135.5 -281.5h360l-10 -121h-371q-12 -86 -12 -188h366l-8 -121h-354q35 -381 340 -381q82 0 176 44t182 124l53 -129 q-78 -80 -195.5 -131t-217.5 -51q-217 0 -347 136t-157 388h-219z" />
<glyph unicode="&#x2122;" horiz-adv-x="1873" d="M80 1315l12 129h719l-10 -129h-283l-59 -733h-156l59 733h-282zM874 582l68 862h119l256 -572l344 572h123l-68 -862h-137l45 577l-264 -440h-105l-196 434l-45 -571h-140z" />
<glyph unicode="&#x25fc;" horiz-adv-x="993" d="M0 0v993h993v-993h-993z" />
</font>
</defs>
</svg>
